<svg width="221" height="41" viewBox="0 0 221 41" fill="none" xmlns="http://www.w3.org/2000/svg">
<path d="M15.792 40C14.7093 40 14 39.4773 13.664 38.432L1.68 2.48L1.568 1.976C1.568 1.64 1.68 1.36 1.904 1.136C2.128 0.911998 2.408 0.799997 2.744 0.799997H7.672C8.15733 0.799997 8.53067 0.930665 8.792 1.192C9.09067 1.416 9.296 1.696 9.408 2.032L18.872 30.872L28.336 2.032C28.4107 1.73333 28.5973 1.45333 28.896 1.192C29.1947 0.930665 29.5867 0.799997 30.072 0.799997H35C35.2987 0.799997 35.56 0.911998 35.784 1.136C36.0453 1.36 36.176 1.64 36.176 1.976L36.064 2.48L24.08 38.432C23.744 39.4773 23.0347 40 21.952 40H15.792ZM82.7511 40C82.3777 40 82.0604 39.8693 81.7991 39.608C81.5377 39.3467 81.4071 39.0293 81.4071 38.656V2.2C81.4071 1.78933 81.5191 1.45333 81.7431 1.192C82.0044 0.930665 82.3404 0.799997 82.7511 0.799997H97.2551C101.81 0.799997 105.375 1.864 107.951 3.992C110.564 6.12 111.871 9.144 111.871 13.064C111.871 15.7893 111.199 18.0853 109.855 19.952C108.548 21.7813 106.719 23.1067 104.367 23.928L112.543 38.208C112.655 38.432 112.711 38.6373 112.711 38.824C112.711 39.16 112.58 39.44 112.319 39.664C112.095 39.888 111.834 40 111.535 40H106.439C105.842 40 105.375 39.8693 105.039 39.608C104.74 39.3467 104.46 38.9733 104.199 38.488L96.9751 25.216H89.1911V38.656C89.1911 39.0293 89.0604 39.3467 88.7991 39.608C88.5751 39.8693 88.2577 40 87.8471 40H82.7511ZM97.0871 18.888C99.3271 18.888 101.007 18.384 102.127 17.376C103.284 16.368 103.863 14.912 103.863 13.008C103.863 11.104 103.284 9.62933 102.127 8.584C101.007 7.53866 99.3271 7.016 97.0871 7.016H89.1911V18.888H97.0871ZM128.617 40C128.244 40 127.927 39.8693 127.665 39.608C127.404 39.3467 127.273 39.0293 127.273 38.656V7.688H116.913C116.54 7.688 116.223 7.55733 115.961 7.296C115.7 7.03466 115.569 6.71733 115.569 6.344V2.2C115.569 1.78933 115.681 1.45333 115.905 1.192C116.167 0.930665 116.503 0.799997 116.913 0.799997H145.473C145.884 0.799997 146.22 0.930665 146.481 1.192C146.743 1.45333 146.873 1.78933 146.873 2.2V6.344C146.873 6.71733 146.743 7.03466 146.481 7.296C146.22 7.55733 145.884 7.688 145.473 7.688H135.169V38.656C135.169 39.0293 135.039 39.3467 134.777 39.608C134.516 39.8693 134.18 40 133.769 40H128.617ZM153.9 40C153.526 40 153.209 39.8693 152.948 39.608C152.686 39.3467 152.556 39.0293 152.556 38.656V2.2C152.556 1.78933 152.668 1.45333 152.892 1.192C153.153 0.930665 153.489 0.799997 153.9 0.799997H178.54C178.95 0.799997 179.286 0.930665 179.548 1.192C179.809 1.45333 179.94 1.78933 179.94 2.2V5.896C179.94 6.30666 179.809 6.64266 179.548 6.904C179.286 7.128 178.95 7.24 178.54 7.24H160.116V17.152H177.308C177.718 17.152 178.054 17.2827 178.316 17.544C178.577 17.768 178.708 18.0853 178.708 18.496V21.968C178.708 22.3787 178.577 22.7147 178.316 22.976C178.054 23.2 177.718 23.312 177.308 23.312H160.116V33.56H178.988C179.398 33.56 179.734 33.6907 179.996 33.952C180.257 34.2133 180.388 34.5493 180.388 34.96V38.656C180.388 39.0667 180.257 39.4027 179.996 39.664C179.734 39.888 179.398 40 178.988 40H153.9ZM185.207 40C184.871 40 184.591 39.888 184.367 39.664C184.143 39.44 184.031 39.16 184.031 38.824C184.031 38.6 184.087 38.376 184.199 38.152L196.743 20.008L184.983 2.648C184.871 2.46133 184.815 2.23733 184.815 1.976C184.815 1.64 184.927 1.36 185.151 1.136C185.375 0.911998 185.655 0.799997 185.991 0.799997H191.703C192.375 0.799997 192.954 1.15466 193.439 1.864L201.671 13.96L209.959 1.864C210.445 1.15466 211.023 0.799997 211.695 0.799997H217.127C217.463 0.799997 217.743 0.911998 217.967 1.136C218.191 1.36 218.303 1.64 218.303 1.976C218.303 2.23733 218.229 2.46133 218.079 2.648L206.375 20.008L218.919 38.152C219.069 38.4507 219.143 38.6747 219.143 38.824C219.143 39.16 219.013 39.44 218.751 39.664C218.527 39.888 218.266 40 217.967 40H212.031C211.322 40 210.762 39.664 210.351 38.992L201.391 26.336L192.599 38.992C192.114 39.664 191.535 40 190.863 40H185.207Z" fill="white"/>
<path d="M57.5 40C46.7479 40 38 31.2521 38 20.5C38 9.74786 46.7479 1 57.5 1C68.2521 1 77 9.74786 77 20.5C77 31.2521 68.2526 40 57.5 40Z" fill="white" fill-opacity="0.4"/>
<path d="M57.5 33.76C50.1884 33.76 44.24 27.8117 44.24 20.5002C44.24 13.1887 50.1884 7.23999 57.5 7.23999C64.8116 7.23999 70.76 13.1887 70.76 20.5002C70.76 27.8117 64.8116 33.76 57.5 33.76Z" fill="white" fill-opacity="0.5"/>
<path d="M62.96 20.4999C62.96 23.5154 60.5156 25.9599 57.5 25.9599C54.4845 25.9599 52.04 23.5154 52.04 20.4999C52.04 17.4844 54.4845 15.0399 57.5 15.0399C60.5156 15.0399 62.96 17.4844 62.96 20.4999Z" fill="white"/>
</svg>
