<svg width="167" height="49" viewBox="0 0 167 49" fill="none" xmlns="http://www.w3.org/2000/svg">
<path d="M33.285 6.608L20.461 36.512H13.237L0.412964 6.608H7.69296L16.989 28.784L26.565 6.608H33.285Z" fill="#1D1C29"/>
<path d="M47.4797 36.904C44.4557 36.904 41.7303 36.2507 39.3037 34.944C36.877 33.6373 34.973 31.8267 33.5917 29.512C32.2477 27.16 31.5757 24.5093 31.5757 21.56C31.5757 18.6107 32.2477 15.9787 33.5917 13.664C34.973 11.3493 36.877 9.53867 39.3037 8.232C41.7303 6.92533 44.4557 6.272 47.4797 6.272C50.541 6.272 53.285 6.92533 55.7117 8.232C58.1383 9.53867 60.0237 11.3493 61.3677 13.664C62.749 15.9787 63.4397 18.6107 63.4397 21.56C63.4397 24.5093 62.749 27.16 61.3677 29.512C60.0237 31.8267 58.1383 33.6373 55.7117 34.944C53.285 36.2507 50.541 36.904 47.4797 36.904ZM47.4797 30.912C50.0557 30.912 52.1837 30.0533 53.8637 28.336C55.5437 26.6187 56.3837 24.36 56.3837 21.56C56.3837 18.76 55.5437 16.5013 53.8637 14.784C52.1837 13.0667 50.0557 12.208 47.4797 12.208C44.9037 12.208 42.7757 13.0667 41.0957 14.784C39.453 16.5013 38.6317 18.76 38.6317 21.56C38.6317 24.36 39.453 26.6187 41.0957 28.336C42.7757 30.0533 44.9037 30.912 47.4797 30.912Z" fill="#1D1C29"/>
<path d="M73.9974 10.976C76.0134 7.84 79.5601 6.272 84.6374 6.272V12.936C84.0401 12.824 83.4987 12.768 83.0134 12.768C80.2881 12.768 78.1601 13.5707 76.6294 15.176C75.0987 16.744 74.3334 19.0213 74.3334 22.008V36.512H67.3334V6.608H73.9974V10.976Z" fill="#1D1C29"/>
<path d="M104.576 34.888C103.754 35.56 102.746 36.064 101.552 36.4C100.394 36.736 99.1623 36.904 97.8556 36.904C94.5703 36.904 92.0316 36.0453 90.2396 34.328C88.4476 32.6107 87.5516 30.1093 87.5516 26.824V0H94.5516V6.832H102.56V12.432H94.5516V26.656C94.5516 28.112 94.9063 29.232 95.6156 30.016C96.3623 30.7627 97.3889 31.136 98.6956 31.136C100.264 31.136 101.57 30.7253 102.616 29.904L104.576 34.888Z" fill="#1D1C29"/>
<path d="M135.674 21.728C135.674 22.2133 135.636 22.904 135.562 23.8H112.098C112.508 26.0027 113.572 27.7573 115.29 29.064C117.044 30.3333 119.21 30.968 121.786 30.968C125.071 30.968 127.778 29.8853 129.906 27.72L133.658 32.032C132.314 33.6373 130.615 34.8507 128.562 35.672C126.508 36.4933 124.194 36.904 121.618 36.904C118.332 36.904 115.439 36.2507 112.938 34.944C110.436 33.6373 108.495 31.8267 107.114 29.512C105.77 27.16 105.098 24.5093 105.098 21.56C105.098 18.648 105.751 16.0347 107.058 13.72C108.402 11.368 110.25 9.53867 112.602 8.232C114.954 6.92533 117.604 6.272 120.554 6.272C123.466 6.272 126.06 6.92533 128.338 8.232C130.652 9.50133 132.444 11.312 133.714 13.664C135.02 15.9787 135.674 18.6667 135.674 21.728ZM120.554 11.872C118.314 11.872 116.41 12.544 114.842 13.888C113.311 15.1947 112.378 16.9493 112.042 19.152H129.01C128.711 16.9867 127.796 15.232 126.266 13.888C124.735 12.544 122.831 11.872 120.554 11.872Z" fill="#1D1C29"/>
<path d="M158.637 36.512L150.965 26.152L143.237 36.512H135.509L147.157 21.336L136.013 6.608H143.797L151.133 16.408L158.469 6.608H166.029L154.829 21.224L166.533 36.512H158.637Z" fill="#1D1C29"/>
<rect x="24" y="43" width="98" height="6" fill="#0870B8"/>
<rect width="20" height="6" transform="matrix(-1 0 0 1 142 43)" fill="#0870B8" fill-opacity="0.6"/>
</svg>
