<?xml version="1.0" standalone="no"?>
<!DOCTYPE svg PUBLIC "-//W3C//DTD SVG 20010904//EN"
 "http://www.w3.org/TR/2001/REC-SVG-20010904/DTD/svg10.dtd">
<svg version="1.0" xmlns="http://www.w3.org/2000/svg"
 width="700.000000pt" height="700.000000pt" viewBox="0 0 700.000000 700.000000"
 preserveAspectRatio="xMidYMid meet">
<metadata>
Created by potrace 1.14, written by Peter Selinger 2001-2017
</metadata>
<g transform="translate(0.000000,700.000000) scale(0.100000,-0.100000)"
fill="#000000" stroke="none">
<path d="M3278 6995 c-1 -1 -37 -5 -78 -9 -41 -3 -85 -8 -97 -10 -12 -3 -48
-7 -80 -11 -32 -3 -74 -10 -93 -15 -19 -5 -51 -12 -70 -15 -64 -11 -224 -54
-310 -83 -810 -276 -1397 -893 -1594 -1677 -14 -55 -27 -113 -30 -130 -3 -16
-8 -41 -11 -55 -28 -156 -38 -284 -39 -495 0 -365 51 -655 171 -964 288 -748
964 -1305 1798 -1482 33 -7 65 -14 70 -15 39 -9 239 -36 307 -41 113 -10 432
-10 548 0 124 10 206 22 375 53 260 47 605 185 858 342 198 122 426 320 574
497 306 368 508 876 547 1375 7 86 7 417 1 470 -3 19 -7 60 -10 90 -46 428
-212 846 -476 1195 -84 111 -98 128 -207 238 -317 323 -751 559 -1237 673 -40
9 -302 52 -360 59 -59 7 -550 16 -557 10z m427 -978 c17 -4 48 -9 70 -12 130
-18 307 -76 422 -137 433 -230 706 -644 761 -1155 13 -130 5 -464 -13 -533 -2
-8 -7 -31 -10 -50 -24 -149 -104 -355 -196 -509 -77 -129 -268 -326 -401 -414
-93 -62 -238 -134 -337 -167 -304 -101 -711 -99 -1018 6 -139 47 -334 156
-424 236 -295 262 -435 519 -499 918 -15 92 -18 158 -15 325 1 116 5 221 8
235 3 14 8 42 11 63 21 140 84 335 149 457 220 421 620 688 1098 736 35 3 65
7 67 9 5 5 297 -2 327 -8z"/>
<path d="M255 980 l-30 -5 0 -485 0 -485 2733 -2 c1662 -2 2732 1 2732 6 0 5
-15 8 -32 6 -26 -3 -29 -2 -15 6 9 6 15 15 11 21 -4 6 -9 5 -15 -3 -6 -10 -8
-7 -6 9 2 29 10 28 27 -3 7 -13 16 -24 19 -23 20 2 31 -3 26 -12 -3 -5 1 -10
10 -10 10 0 13 5 9 12 -5 7 -3 8 6 3 7 -5 60 -9 116 -11 113 -2 130 6 93 48
-12 13 -18 16 -16 8 10 -30 14 -45 10 -37 -3 4 -10 4 -16 0 -6 -4 -8 0 -4 9 3
9 -1 25 -9 36 -12 17 -12 21 1 25 8 4 12 1 9 -6 -2 -8 4 -13 17 -14 17 -2 18
1 9 13 -9 10 -9 14 -1 14 11 0 15 -13 11 -39 -1 -13 1 -13 14 -2 9 8 16 9 16
3 0 -6 -6 -12 -12 -15 -7 -2 -10 -8 -6 -12 11 -11 38 14 32 29 -3 7 7 18 21
24 15 7 24 8 20 2 -3 -5 1 -10 10 -10 9 0 14 3 12 7 -2 5 4 15 13 24 14 13 18
13 29 1 11 -11 10 -13 -4 -10 -10 2 -20 -2 -22 -9 -3 -8 5 -10 24 -7 38 7 41
13 19 30 -11 8 -15 14 -9 14 7 0 15 -5 18 -10 10 -16 19 -11 33 17 10 23 10
30 -4 43 -15 14 -16 13 -11 -3 8 -23 -2 -49 -16 -40 -22 14 -48 9 -58 -9 -6
-11 -16 -17 -24 -15 -7 3 -22 -1 -34 -9 -20 -15 -27 -9 -22 19 2 10 -17 9 -24
-2 -3 -5 -1 -12 5 -16 5 -3 10 -11 10 -18 0 -6 -7 -2 -15 10 -10 15 -21 20
-32 16 -13 -5 -12 -1 5 17 30 32 28 47 -9 65 -34 18 -34 41 1 37 19 -2 21 0
10 13 -7 9 -8 15 -2 15 17 0 22 -28 6 -41 -8 -6 -12 -14 -9 -17 3 -3 14 3 25
13 11 10 20 13 20 8 0 -6 -7 -13 -15 -17 -13 -5 -13 -9 -3 -26 10 -15 10 -22
0 -32 -23 -23 -12 -31 12 -9 24 23 47 21 45 -2 0 -9 -2 -9 -6 1 -8 19 -22 14
-20 -8 2 -24 10 -25 32 -3 16 16 16 18 -5 35 -12 10 -26 16 -30 13 -4 -3 -11
2 -14 10 -4 13 -2 13 14 5 12 -6 21 -7 25 0 7 11 35 2 35 -12 0 -6 -6 -5 -15
2 -8 7 -15 8 -15 2 0 -19 27 -33 37 -20 15 19 12 50 -3 44 -8 -3 -11 0 -7 10
5 14 -12 20 -20 7 -2 -5 -2 -2 0 5 1 8 -3 12 -9 9 -7 -2 -12 -11 -10 -21 2 -9
-1 -16 -5 -16 -22 0 -9 38 15 50 15 6 24 9 20 5 -9 -9 34 -45 44 -38 5 2 8 9
8 15 0 6 -3 8 -7 5 -3 -4 -12 -2 -20 4 -11 10 -10 14 4 26 17 13 16 14 -4 8
-14 -4 -23 -2 -23 5 0 6 -10 2 -22 -9 -20 -19 -22 -19 -34 -4 -10 14 -9 20 5
29 9 7 18 10 21 8 2 -3 -2 -9 -10 -14 -8 -5 -11 -12 -7 -16 10 -11 39 17 33
33 -3 8 -1 11 4 8 6 -3 10 1 10 10 0 9 -4 13 -10 10 -9 -5 -14 7 -12 26 1 4
-14 15 -33 25 -39 21 -53 14 -61 -32 -4 -24 -3 -27 8 -16 7 7 14 17 14 22 1 6
2 15 3 20 1 14 48 -17 55 -37 4 -9 -1 -21 -11 -29 -27 -20 -38 -17 -13 4 21
17 21 19 5 35 -22 22 -30 21 -32 -4 -2 -17 1 -18 13 -9 10 9 14 9 14 1 0 -11
-13 -15 -39 -11 -13 1 -13 -1 -2 -14 8 -9 9 -16 3 -16 -5 0 -13 7 -16 16 -5
14 -9 14 -22 3 -13 -10 -20 -10 -43 4 -16 9 -31 14 -35 10 -5 -6 -10 12 -7 30
0 4 -3 7 -7 7 -17 0 -21 -12 -10 -30 9 -13 7 -23 -5 -41 -10 -13 -17 -19 -17
-13 0 5 5 15 11 21 19 19 3 44 -24 38 -15 -4 -28 -1 -36 9 -8 9 -19 16 -25 16
-6 -1 5 -14 24 -31 19 -16 36 -25 38 -19 2 5 8 10 13 10 5 0 4 -9 -3 -19 -10
-17 -13 -17 -27 -4 -13 14 -17 13 -33 -7 -10 -12 -15 -26 -12 -31 3 -5 0 -9
-6 -9 -16 0 -8 33 13 48 14 11 15 17 6 28 -6 8 -19 12 -28 9 -9 -2 -22 -1 -30
4 -11 7 -9 13 8 30 11 11 21 17 21 12 0 -6 -5 -13 -10 -16 -13 -8 -13 -25 -1
-25 5 0 13 9 16 21 l7 21 22 -21 c33 -31 49 -25 18 7 -15 15 -31 26 -37 23 -5
-3 -2 7 8 22 9 15 13 27 7 27 -5 0 -10 5 -10 11 0 8 5 8 15 -1 8 -7 15 -8 15
-2 0 5 -6 15 -14 21 -10 9 -16 8 -26 -3 -6 -9 -9 -19 -6 -25 3 -5 3 -16 0 -25
-5 -12 -9 -13 -24 -3 -15 9 -17 14 -7 25 9 12 7 18 -9 30 -19 16 -19 16 8 44
33 34 35 43 7 45 -17 2 -18 -1 -9 -13 9 -10 9 -14 1 -14 -6 0 -11 5 -11 11 0
5 -4 8 -8 5 -5 -3 -9 1 -9 9 0 8 5 11 10 8 7 -4 8 1 3 12 -6 18 -6 18 11 3 18
-16 22 -18 44 -18 6 0 1 -13 -10 -29 -22 -31 -26 -41 -13 -41 4 0 16 16 26 35
20 36 15 53 -15 59 -8 2 -25 7 -38 13 -21 8 -22 11 -7 16 10 4 14 12 10 18 -4
8 -9 7 -16 -2 -6 -11 -8 -9 -6 6 2 11 12 28 23 38 l20 17 -20 18 c-20 17 -20
17 3 40 21 21 23 21 17 3 -7 -23 7 -33 47 -36 26 -3 28 -1 15 14 -15 17 -12
41 5 41 6 0 6 -6 -2 -15 -15 -18 1 -20 18 -3 17 17 15 25 -8 31 -21 5 -54 -28
-44 -45 3 -4 0 -8 -6 -8 -16 0 -8 33 13 48 14 11 15 17 6 28 -6 8 -19 12 -28
9 -9 -2 -22 -1 -30 4 -11 7 -9 13 8 30 11 11 21 17 21 12 0 -6 -4 -13 -10 -16
-13 -8 -13 -25 -1 -25 5 0 13 9 16 21 l7 21 22 -21 c12 -12 30 -21 39 -21 9 0
17 -4 17 -9 0 -13 -37 -2 -51 15 -13 16 -34 19 -24 5 3 -6 25 -23 49 -39 l43
-30 -2 28 c-2 35 -14 53 -31 46 -7 -3 -22 6 -32 19 -11 13 -23 21 -28 17 -4
-4 0 5 9 21 10 15 13 27 7 27 -5 0 -10 5 -10 11 0 8 5 8 15 -1 9 -8 15 -9 15
-2 0 6 -4 13 -10 17 -5 3 -6 13 -3 23 3 9 -4 5 -16 -10 -12 -15 -20 -32 -17
-37 4 -5 3 -16 0 -25 -5 -13 -8 -14 -28 -1 -13 8 -25 13 -28 10 -2 -3 -5 2 -5
10 0 13 3 13 23 0 27 -17 34 -19 34 -7 0 5 -9 13 -21 18 -19 9 -20 11 -5 23
14 12 16 11 10 -5 -7 -19 -7 -19 14 0 27 23 27 25 5 24 -10 0 -25 1 -33 3 -8
2 -14 -1 -15 -8 0 -6 -4 -15 -9 -20 -5 -4 -6 -3 -2 4 3 6 1 15 -6 19 -13 8
-5324 12 -5373 4z m5412 -96 c5 -16 -25 -26 -33 -12 -4 6 -3 8 4 4 6 -3 13 -2
16 3 4 5 -2 12 -11 15 -15 4 -15 5 1 3 11 -1 21 -7 23 -13z m29 -77 c12 4 15
3 10 -6 -5 -8 -18 -10 -32 -7 -17 5 -22 3 -18 -7 3 -8 -3 -20 -13 -27 -15 -12
-16 -12 -5 0 14 16 16 34 3 26 -7 -5 -8 8 -2 32 1 1 10 -2 20 -8 11 -5 27 -7
37 -3z m-46 -108 c0 -5 -4 -9 -8 -9 -5 0 -9 7 -9 15 0 8 4 12 9 9 4 -3 8 -9 8
-15z m-5 -168 c3 -5 2 -12 -3 -15 -5 -3 -9 1 -9 9 0 17 3 19 12 6z m5 -72 c0
-5 -4 -9 -8 -9 -5 0 -9 7 -9 15 0 8 4 12 9 9 4 -3 8 -9 8 -15z m17 -55 c5 -16
-25 -26 -33 -12 -4 6 -3 8 4 4 6 -3 13 -2 16 3 4 5 -2 12 -11 15 -15 4 -15 5
1 3 11 -1 21 -7 23 -13z m29 -77 c12 4 15 3 10 -6 -5 -8 -18 -10 -32 -7 -17 5
-22 3 -18 -7 3 -8 -3 -20 -13 -27 -15 -12 -16 -12 -5 0 14 16 16 34 3 26 -7
-5 -8 8 -2 32 1 1 10 -2 20 -8 11 -5 27 -7 37 -3z m159 -17 c4 -6 2 -17 -4
-24 -8 -9 -7 -18 4 -32 12 -16 17 -17 34 -6 30 18 39 15 12 -5 -19 -13 -28
-14 -43 -4 -15 9 -20 8 -24 -4 -4 -8 -11 -15 -17 -15 -5 0 -3 8 6 18 25 27 21
36 -7 15 -13 -10 -22 -22 -19 -26 3 -5 -4 -4 -15 2 -31 17 -40 13 -16 -7 19
-16 20 -21 8 -37 -8 -10 -14 -15 -14 -9 0 5 -10 15 -22 23 -19 12 -24 11 -40
-9 -10 -13 -21 -20 -24 -17 -3 2 6 16 19 29 l24 25 28 -21 c20 -14 27 -15 23
-5 -2 8 -16 21 -30 29 -25 13 -28 12 -59 -18 -27 -26 -30 -34 -19 -47 7 -8 16
-12 21 -9 5 3 9 0 9 -6 0 -7 -7 -9 -16 -6 -12 5 -15 2 -10 -11 4 -9 1 -20 -6
-25 -23 -14 -33 -9 -12 7 19 14 19 14 -1 15 -19 1 -19 1 -2 11 9 6 15 15 11
21 -4 7 -10 5 -16 -3 -6 -11 -8 -9 -6 6 2 11 12 28 23 38 l20 17 -20 18 c-20
17 -20 17 3 40 21 21 23 21 17 3 -7 -23 7 -33 47 -36 26 -3 28 -1 15 14 -15
17 -12 41 5 41 6 0 5 -7 -3 -16 -12 -15 -11 -16 9 -10 14 5 22 3 22 -4 0 -6
-4 -8 -10 -5 -5 3 -10 1 -10 -4 0 -6 2 -11 4 -11 2 0 12 -3 20 -6 11 -4 15 -2
13 7 -2 8 -2 11 0 7 9 -16 23 -7 20 13 -1 12 5 24 13 26 13 4 13 3 0 -6 -8 -5
-11 -13 -7 -17 7 -7 37 14 37 26 0 5 -8 11 -17 13 -16 4 -16 5 -1 6 9 0 20 -4
23 -9z m58 -18 c-6 -25 -40 -45 -46 -28 -3 7 -1 19 5 27 8 11 9 10 4 -4 -4
-11 -2 -17 5 -15 6 2 10 7 9 12 -1 5 4 13 12 17 17 11 17 12 11 -9z m54 -21
c7 -9 13 -20 13 -26 0 -5 -7 0 -15 12 -9 13 -22 20 -30 17 -8 -4 -15 -2 -15 3
0 16 34 11 47 -6z m-317 -52 c0 -5 -4 -9 -8 -9 -5 0 -9 7 -9 15 0 8 4 12 9 9
4 -3 8 -9 8 -15z m215 -8 c-2 -4 3 -17 11 -29 11 -16 20 -20 32 -13 9 4 22 6
29 4 17 -6 -6 -43 -26 -43 -8 0 -11 -3 -8 -7 4 -3 -1 -12 -10 -18 -15 -11 -15
-17 -5 -40 7 -14 8 -24 3 -20 -5 3 -12 -4 -16 -15 -3 -11 -11 -20 -17 -20 -6
0 -6 6 2 15 18 22 5 31 -15 11 -9 -9 -22 -16 -28 -16 -6 0 -1 7 11 16 27 19
28 30 2 37 -20 5 -46 -16 -37 -31 3 -4 1 -14 -5 -22 -8 -12 -9 -12 -4 2 3 10
1 20 -5 23 -5 4 0 14 12 24 19 15 19 18 5 30 -15 13 -36 8 -36 -9 0 -5 8 -7
18 -3 13 5 12 1 -5 -16 -13 -12 -23 -26 -23 -31 0 -6 -5 -10 -11 -10 -6 0 -4
8 4 20 8 11 13 35 11 53 -3 21 -1 27 5 18 7 -11 10 -9 16 9 l7 22 22 -21 c12
-12 30 -21 39 -21 9 0 17 -4 17 -9 0 -13 -37 -2 -51 15 -13 16 -34 19 -24 5 3
-6 25 -23 49 -39 l43 -30 -2 30 c-2 29 -21 51 -36 42 -4 -2 -16 7 -27 21 -11
13 -23 21 -27 17 -4 -4 -1 5 5 20 7 15 20 26 30 25 18 -1 56 -57 40 -57 -6 0
-10 4 -10 9 0 15 -31 42 -41 36 -13 -9 -11 -25 4 -21 6 1 9 1 5 -1 -14 -8 -8
-25 6 -20 10 4 13 1 10 -7 -6 -15 25 -18 44 -3 10 8 10 13 -1 26 -8 9 -20 26
-26 38 -10 19 -9 22 4 17 8 -3 13 -9 10 -13z m39 -24 c7 -6 6 -7 -4 -4 -8 2
-16 12 -17 23 -2 13 -1 15 4 4 3 -8 11 -19 17 -23z m-170 -3 c14 -5 14 -9 4
-22 -11 -13 -10 -14 10 -8 14 5 22 3 22 -4 0 -6 -4 -9 -9 -6 -12 8 -32 -18
-28 -35 2 -8 2 -11 0 -6 -7 12 -24 8 -22 -5 3 -25 -1 -38 -12 -38 -8 0 -8 4 1
14 9 12 8 15 -9 13 -25 -2 -26 -10 -4 -32 16 -16 18 -16 35 5 21 25 24 14 4
-13 -8 -10 -20 -15 -29 -11 -20 7 -51 54 -37 55 38 5 52 18 45 42 -2 12 -2 16
1 10 10 -21 22 -14 22 12 0 14 -4 25 -9 25 -5 0 -9 -5 -9 -12 0 -6 -3 -9 -6
-5 -3 3 -3 10 1 16 7 13 8 13 29 5z m96 -128 c0 -3 -4 -8 -10 -11 -5 -3 -10
-1 -10 4 0 6 5 11 10 11 6 0 10 -2 10 -4z m-69 -39 c-10 -9 -11 -8 -5 6 3 10
9 15 12 12 3 -3 0 -11 -7 -18z m139 3 c0 -5 -5 -10 -11 -10 -5 0 -7 5 -4 10 3
6 8 10 11 10 2 0 4 -4 4 -10z"/>
<path d="M5660 245 c7 -8 17 -15 22 -15 6 0 5 7 -2 15 -7 8 -17 15 -22 15 -6
0 -5 -7 2 -15z"/>
<path d="M5895 147 c-18 -15 -24 -26 -17 -31 6 -3 13 3 17 14 4 11 10 18 15
15 9 -6 25 13 17 21 -3 3 -17 -6 -32 -19z"/>
<path d="M5872 973 c11 -14 11 -15 -7 -5 -25 13 -131 11 -128 -3 1 -5 7 -11
14 -14 7 -2 9 1 4 9 -6 9 -4 11 4 5 9 -5 6 -15 -13 -34 -17 -18 -24 -34 -20
-44 7 -19 20 -22 29 -6 4 6 13 8 21 5 15 -6 46 32 38 46 -3 4 0 8 6 8 17 0 7
-33 -15 -52 -11 -10 -15 -17 -8 -18 6 0 15 5 19 11 3 6 17 8 32 4 26 -6 26 -6
8 14 -11 12 -16 24 -13 28 4 3 7 1 7 -5 0 -7 5 -12 11 -12 5 0 7 5 4 10 -3 6
-1 10 5 10 7 0 9 -8 5 -19 -7 -23 26 -34 51 -16 20 14 28 51 14 60 -6 4 -7 11
-4 17 4 6 1 9 -7 6 -8 -3 -27 -1 -42 3 -26 7 -27 6 -15 -8z m-11 -22 c11 -13
11 -14 -6 -7 -23 9 -24 9 -48 7 -10 0 -17 -7 -16 -13 3 -25 -1 -38 -12 -38 -8
0 -8 5 1 15 8 9 9 15 2 15 -6 0 -14 -4 -17 -10 -3 -5 -10 -10 -15 -10 -5 0 3
12 18 28 30 30 71 36 93 13z m43 -3 c-6 -20 -5 -21 10 -9 10 9 16 10 16 2 0
-6 -6 -11 -12 -11 -10 0 -10 -2 0 -9 11 -6 10 -10 -4 -15 -9 -3 -19 -4 -22 -1
-3 3 1 5 8 5 9 0 8 6 -5 20 -11 12 -13 20 -6 20 7 0 9 5 6 10 -3 6 -1 10 5 10
7 0 9 -8 4 -22z"/>
<path d="M5951 976 c-8 -10 -8 -16 3 -25 11 -9 14 -7 14 14 0 29 -2 30 -17 11z"/>
<path d="M6040 980 c0 -5 -7 -7 -16 -3 -9 3 -20 0 -25 -8 -7 -11 -9 -11 -9 -1
0 7 -4 11 -10 7 -5 -3 -7 -12 -4 -20 4 -8 0 -17 -8 -20 -8 -3 -14 -15 -15 -26
-2 -17 1 -18 13 -9 10 9 14 9 14 1 0 -6 -3 -11 -7 -12 -5 0 -18 -2 -30 -3 -31
-4 -38 -13 -25 -29 7 -8 9 -17 5 -20 -3 -4 2 -9 11 -13 9 -3 13 -10 10 -15 -3
-5 2 -9 11 -9 10 0 13 4 8 13 -4 6 5 4 20 -6 15 -9 27 -13 27 -7 0 5 5 10 11
10 8 0 8 -5 -1 -15 -7 -8 -8 -15 -2 -15 5 0 15 6 21 14 14 16 -8 39 -30 31 -8
-3 -21 0 -29 5 -13 8 -12 12 8 25 12 9 22 21 22 27 0 6 -8 4 -18 -5 -10 -10
-23 -17 -28 -17 -4 0 2 7 14 16 17 11 20 19 13 33 -5 9 -7 22 -3 28 9 15 32
-3 51 -39 11 -22 12 -30 2 -42 -16 -19 -7 -34 33 -52 31 -15 31 -15 3 -11 -20
3 -32 -1 -42 -16 -8 -11 -12 -24 -10 -28 7 -11 -27 -21 -38 -10 -5 5 -5 17 2
29 10 19 6 32 -10 32 -5 0 -6 -8 -3 -17 4 -11 3 -14 -3 -7 -16 21 -42 23 -65
4 -13 -10 -20 -21 -16 -25 4 -4 14 0 23 9 23 23 30 20 54 -19 21 -36 35 -43
47 -24 3 6 17 8 32 4 26 -6 26 -6 8 14 -18 20 -15 41 7 41 7 0 6 -4 -3 -10 -8
-5 -11 -12 -7 -16 4 -4 16 1 26 10 21 19 41 14 41 -10 0 -8 5 -12 10 -9 7 4 4
17 -7 35 -14 24 -14 31 -3 45 11 14 11 19 -5 33 -17 16 -17 16 -12 0 10 -27
-2 -46 -24 -41 -11 3 -22 9 -24 13 -9 14 6 39 20 34 7 -3 16 -1 20 5 3 6 0 11
-8 11 -14 0 -47 30 -47 43 0 4 5 7 11 7 5 0 7 -4 4 -10 -3 -5 -2 -10 4 -10 18
0 22 19 6 28 -15 8 -15 10 0 22 13 11 19 11 33 -3 9 -10 11 -17 5 -17 -6 0
-13 6 -16 13 -2 6 -8 9 -12 4 -5 -4 -3 -13 3 -19 9 -9 9 -15 0 -25 -13 -16
-10 -20 16 -25 10 -2 23 5 30 17 13 24 39 45 46 38 3 -2 -3 -9 -13 -14 -9 -6
-15 -15 -11 -21 4 -7 10 -5 16 3 7 11 8 9 6 -5 -2 -10 3 -21 10 -23 6 -3 10 1
9 9 -2 7 -2 10 0 6 9 -16 22 -7 20 12 -1 11 -6 19 -12 16 -6 -2 -11 7 -11 22
1 22 -4 27 -28 29 -16 1 -36 5 -44 8 -12 5 -13 3 -2 -10 12 -14 11 -15 -13 -4
-21 9 -30 9 -42 -1 -13 -11 -14 -10 -9 4 3 9 3 16 0 16 -3 0 -6 -4 -6 -10z
m-7 -24 c4 -10 1 -13 -9 -9 -7 3 -14 9 -14 14 0 14 17 10 23 -5z m115 2 c-2
-6 -10 -13 -16 -14 -7 -1 -8 0 -2 3 5 2 8 9 4 14 -3 5 0 9 6 9 7 0 10 -5 8
-12z m-30 -40 c-2 -6 -10 -13 -16 -14 -7 -1 -8 0 -2 3 5 2 8 9 4 14 -3 5 0 9
6 9 7 0 10 -5 8 -12z m-173 -48 c3 -5 1 -10 -4 -10 -6 0 -11 5 -11 10 0 6 2
10 4 10 3 0 8 -4 11 -10z m15 -30 c0 -5 -4 -10 -10 -10 -5 0 -10 5 -10 10 0 6
5 10 10 10 6 0 10 -4 10 -10z"/>
<path d="M6200 990 c-8 -27 -7 -41 4 -37 9 4 12 -3 10 -19 -2 -26 3 -29 26
-14 10 6 11 10 3 10 -7 0 -13 5 -13 11 0 6 9 4 21 -5 12 -8 29 -12 38 -9 11 4
10 1 -4 -10 -11 -8 -16 -19 -12 -23 4 -5 13 -2 18 6 9 12 10 12 5 -3 -4 -12
-2 -17 6 -14 7 2 12 15 10 28 -3 22 -2 22 16 -6 11 -16 17 -32 14 -35 -2 -3
-7 1 -9 7 -3 9 -11 8 -31 -4 -15 -9 -24 -13 -20 -9 4 5 -4 17 -17 28 -25 19
-25 19 -50 0 -13 -11 -21 -23 -17 -27 10 -12 -20 6 -40 23 -14 12 -20 12 -33
2 -19 -16 -1 -43 24 -35 9 2 23 0 31 -5 13 -8 12 -12 -7 -25 -13 -9 -23 -21
-23 -27 0 -6 8 -4 18 5 10 10 23 17 28 17 4 0 -2 -7 -14 -16 -21 -15 -22 -18
-8 -39 13 -20 13 -24 1 -29 -8 -3 -23 -3 -32 1 -17 5 -17 5 -1 -12 14 -15 20
-16 33 -5 13 11 20 11 40 0 21 -11 29 -11 50 0 19 10 27 10 39 1 11 -10 19 -9
35 1 16 10 23 10 33 0 6 -6 17 -12 22 -12 6 0 5 5 -2 12 -7 7 -12 17 -12 23 0
5 5 2 11 -7 5 -10 16 -15 24 -12 22 9 18 -4 -6 -16 -15 -9 -24 -8 -35 0 -19
17 -47 5 -40 -17 3 -10 1 -25 -4 -33 -9 -13 -11 -13 -20 0 -5 8 -7 22 -4 32 7
24 -14 33 -42 17 -20 -10 -28 -10 -48 0 -28 16 -49 7 -42 -17 3 -10 1 -24 -4
-32 -9 -13 -11 -13 -20 0 -5 8 -7 22 -5 31 8 25 -19 43 -35 24 -7 -8 -20 -15
-29 -15 -10 0 -7 5 9 13 16 9 24 20 22 33 -5 28 -10 30 -29 11 -9 -9 -13 -20
-9 -24 4 -4 11 -1 16 7 6 10 10 11 10 3 0 -17 -35 -34 -54 -27 -21 8 -81 -49
-71 -67 5 -8 4 -10 -3 -5 -7 4 -12 1 -12 -9 0 -9 4 -14 9 -11 18 11 21 -26 4
-39 -16 -12 -16 -15 2 -48 10 -20 21 -35 24 -35 20 2 31 -3 26 -12 -3 -5 1
-10 10 -10 10 0 13 4 8 13 -4 6 5 4 21 -6 20 -14 31 -16 41 -7 18 15 7 49 -16
47 -11 -1 -17 -6 -15 -12 2 -5 9 -9 15 -7 6 1 11 -2 11 -8 0 -13 -11 -12 -31
3 -14 10 -15 16 -4 30 7 9 11 29 9 44 -1 15 2 31 9 35 6 4 8 10 4 14 -4 5 -17
-2 -30 -14 -12 -12 -16 -22 -9 -22 6 0 12 -5 12 -11 0 -8 -5 -7 -16 2 -13 11
-15 11 -14 -2 4 -26 0 -39 -11 -39 -8 0 -8 4 1 14 9 12 8 15 -9 13 -25 -2 -26
-10 -4 -32 16 -16 18 -16 35 5 21 25 24 14 4 -13 -16 -21 -39 -14 -61 19 -15
23 -11 29 16 26 4 -1 15 8 24 18 11 12 13 20 7 20 -7 0 -12 5 -12 11 0 8 5 7
16 -2 13 -11 15 -11 14 2 -4 26 0 39 11 39 8 0 8 -4 0 -13 -8 -11 -5 -14 19
-14 28 0 39 10 23 20 -5 2 -2 2 5 0 8 -1 12 2 10 9 -7 20 -69 15 -84 -7 -8
-11 -14 -15 -14 -11 0 5 7 18 17 28 9 10 11 18 5 18 -6 0 -18 -10 -26 -22 -9
-12 -18 -19 -21 -16 -4 3 5 17 18 30 22 22 26 23 45 10 19 -13 25 -12 47 2 14
9 25 12 25 6 0 -5 -5 -10 -10 -10 -6 0 -2 -12 7 -27 10 -15 14 -25 8 -21 -5 3
-20 -8 -33 -23 -13 -16 -19 -29 -13 -29 6 0 11 -5 11 -11 0 -5 -4 -7 -10 -4
-18 11 -11 -11 9 -29 19 -17 19 -16 15 22 -4 44 18 77 30 46 4 -10 -1 -22 -11
-30 -17 -12 -17 -14 0 -46 10 -19 26 -34 38 -35 16 -2 15 3 -12 29 -22 23 -27
33 -18 39 7 4 16 6 20 4 3 -3 14 4 24 15 10 12 13 20 7 20 -7 0 -12 6 -12 13
1 6 10 1 20 -12 11 -13 20 -28 19 -35 0 -7 -2 -7 -6 2 -8 21 -20 13 -20 -13 0
-26 12 -34 20 -12 4 9 6 9 6 0 1 -16 -14 -24 -33 -17 -13 5 -14 10 -5 20 8 10
6 13 -10 11 -31 -2 -27 -14 21 -55 22 -20 30 -22 47 -13 14 8 21 8 21 1 0 -5
-8 -10 -17 -10 -13 0 -14 -3 -5 -12 16 -16 41 7 35 32 -5 18 -43 25 -43 8 0
-4 -5 -8 -10 -8 -6 0 -5 9 3 23 17 27 15 62 -5 85 -16 18 -14 42 4 42 7 0 7
-5 -1 -13 -8 -11 -5 -14 19 -14 28 0 39 10 23 20 -5 2 -2 2 5 0 8 -1 12 2 10
9 -7 19 -66 14 -84 -8 -14 -17 -14 -16 0 9 9 15 12 27 6 27 -5 0 -10 5 -10 10
0 6 11 3 25 -6 23 -15 27 -15 50 0 14 9 25 12 25 6 0 -5 -5 -10 -10 -10 -6 0
-2 -12 7 -27 10 -15 14 -25 8 -21 -5 3 -20 -8 -33 -23 -13 -16 -19 -29 -13
-29 6 0 11 -5 11 -11 0 -5 -4 -7 -10 -4 -18 11 -11 -11 9 -29 19 -17 19 -16
15 22 -2 27 1 44 11 52 9 8 15 8 15 2 0 -6 -6 -12 -12 -15 -7 -2 -10 -8 -5
-12 4 -5 13 -3 19 3 15 15 28 15 28 1 0 -5 -3 -8 -8 -5 -4 2 -16 -2 -27 -10
-19 -14 -19 -15 -2 -47 10 -19 27 -33 38 -34 16 -2 15 3 -12 29 -22 23 -27 33
-18 39 7 4 16 6 20 4 3 -3 14 4 24 15 10 12 13 20 7 20 -7 0 -12 6 -12 13 1 6
10 1 20 -12 11 -13 20 -28 19 -35 0 -7 -2 -7 -6 2 -8 21 -20 13 -20 -13 0 -14
3 -25 8 -25 5 0 9 5 9 10 0 6 8 5 20 -2 11 -7 20 -16 20 -21 0 -4 -4 -5 -10
-2 -5 3 -10 1 -10 -4 0 -6 -5 -11 -11 -11 -8 0 -7 6 2 17 12 15 12 16 -3 10
-27 -10 -51 2 -37 19 8 10 6 13 -10 11 -31 -2 -27 -13 21 -56 21 -18 31 -21
41 -13 10 8 16 6 24 -8 10 -14 9 -19 -2 -24 -8 -3 -17 -1 -20 4 -4 6 -11 10
-17 10 -6 0 -3 -9 7 -20 18 -20 18 -21 -1 -14 -16 7 -17 5 -7 -7 10 -12 8 -17
-8 -28 -12 -7 -18 -15 -15 -18 3 -3 12 0 21 7 9 7 18 10 21 7 3 -3 -4 -10 -15
-17 -15 -8 -27 -8 -42 0 -11 7 -23 9 -26 7 -2 -3 5 -10 16 -17 12 -6 19 -15
16 -21 -13 -20 15 -7 45 21 37 34 51 35 20 2 -12 -12 -16 -22 -10 -22 5 0 10
-5 10 -11 0 -5 -4 -8 -9 -5 -5 4 -11 3 -14 -1 -2 -5 -2 -2 0 5 1 8 -3 12 -9 9
-7 -2 -11 -13 -10 -23 5 -26 9 -29 25 -16 10 9 18 8 33 -4 18 -15 18 -15 -2
-5 -21 10 -34 6 -34 -11 0 -4 3 -7 8 -7 26 4 32 -1 20 -21 -13 -21 -38 -27
-38 -10 0 6 5 9 11 8 6 -2 14 4 17 12 2 8 1 12 -3 7 -5 -4 -15 -1 -24 7 -14
13 -16 8 -16 -53 l0 -68 28 20 c15 12 27 25 27 31 0 6 8 3 17 -7 16 -16 16
-18 0 -34 -9 -10 -17 -12 -17 -6 0 6 6 13 13 16 6 2 9 7 5 11 -7 8 -48 -15
-48 -27 0 -4 5 -5 10 -2 6 3 10 1 10 -5 0 -7 -8 -9 -20 -5 -15 5 -20 2 -21
-12 -4 -47 1 -77 13 -85 10 -7 8 -8 -4 -4 -10 3 -18 2 -18 -3 0 -16 13 -20 31
-10 13 6 19 6 19 -1 0 -5 -8 -10 -17 -10 -13 0 -14 -3 -5 -12 8 -8 15 -8 27 2
12 10 15 10 15 0 0 -19 13 -3 17 20 3 19 -11 28 -20 13 -2 -5 -2 -2 0 6 2 8
-2 11 -12 8 -18 -8 -29 9 -31 47 -1 20 1 24 7 15 7 -12 9 -12 9 0 0 11 4 9 14
-5 14 -19 3 -39 -16 -28 -4 3 -8 1 -8 -4 0 -17 13 -21 34 -10 11 6 18 7 14 3
-4 -4 5 -18 20 -31 18 -16 21 -22 9 -18 -10 4 -17 3 -16 -2 4 -23 -4 -30 -36
-31 -19 -1 -35 4 -35 9 0 6 -6 5 -15 -2 -10 -9 -15 -9 -15 -1 0 6 5 11 10 11
6 0 2 12 -7 27 -10 15 -12 24 -5 20 8 -5 12 -2 12 8 0 9 -4 14 -9 11 -16 -11
-23 28 -7 40 9 6 16 17 16 23 0 8 -5 7 -16 -3 -18 -18 -34 -21 -34 -5 0 5 4 8
9 5 5 -3 14 1 22 10 10 13 7 20 -20 45 -18 16 -37 29 -43 29 -7 0 3 -13 20
-28 18 -16 32 -33 32 -38 0 -5 -4 -4 -8 1 -4 6 -19 21 -34 33 l-26 24 -30 -22
c-34 -25 -34 -65 -1 -55 11 4 19 2 19 -5 0 -6 -4 -8 -10 -5 -5 3 -10 1 -10 -4
0 -6 5 -11 10 -11 6 0 10 -5 10 -12 0 -6 -11 -1 -25 12 -14 13 -25 19 -25 13
0 -6 7 -16 15 -23 9 -7 13 -15 10 -18 -3 -3 -12 3 -20 14 -12 16 -14 16 -15 3
0 -28 23 -40 50 -26 25 13 34 50 17 73 -10 15 20 27 40 15 11 -6 12 -10 4 -15
-6 -4 -11 -2 -11 3 0 6 -4 11 -9 11 -5 0 -8 -11 -8 -25 0 -14 3 -25 8 -25 5 0
9 5 9 12 0 6 3 8 6 5 4 -4 1 -13 -6 -22 -8 -10 -9 -15 -1 -15 6 0 11 -5 11
-11 0 -8 -5 -7 -16 2 -13 11 -15 11 -14 -2 4 -26 0 -39 -11 -39 -8 0 -8 5 1
15 16 19 7 19 -31 0 -22 -12 -34 -13 -50 -4 -33 17 -33 3 -1 -20 32 -22 47
-27 37 -12 -9 16 13 23 34 11 16 -8 23 -6 35 12 9 12 16 18 16 14 0 -5 -7 -18
-17 -28 -9 -10 -11 -18 -5 -18 6 0 18 10 27 23 13 19 17 20 25 7 12 -19 12
-21 0 -40 -5 -8 -12 -11 -17 -7 -4 5 -1 12 7 17 8 5 11 13 6 17 -4 4 -16 -2
-25 -13 -17 -21 -18 -21 -42 -3 -25 20 -40 24 -38 11 5 -28 -2 -35 -19 -19
-23 21 -39 22 -22 2 9 -10 9 -15 1 -15 -6 0 -11 4 -11 8 0 5 -7 9 -15 9 -8 0
-15 -4 -15 -9 0 -4 -5 -8 -11 -8 -8 0 -9 4 0 13 6 8 8 17 4 20 -3 4 -1 7 5 7
7 0 12 -5 12 -11 0 -5 5 -7 11 -3 7 4 6 11 -5 22 -12 12 -18 13 -30 3 -9 -8
-13 -17 -10 -22 3 -5 0 -9 -6 -9 -7 0 -9 7 -6 16 4 10 1 14 -6 12 -7 -3 -14
-10 -14 -16 -1 -7 -2 -18 -3 -24 -1 -9 -4 -9 -10 2 -6 8 -7 18 -4 24 4 5 -1 7
-11 3 -10 -4 -15 -3 -11 3 4 6 14 9 22 8 9 -2 18 2 20 7 2 6 -14 10 -39 10
-33 -1 -42 -5 -40 -16 1 -9 -9 -22 -23 -29 -14 -7 -25 -16 -25 -20 0 -3 61 -6
135 -6 74 -1 135 3 135 7 0 5 8 9 18 9 12 0 13 -3 4 -8 -7 -5 46 -9 118 -9 74
0 127 3 124 8 -3 5 -10 7 -15 4 -5 -4 -9 -1 -9 4 0 6 5 11 10 11 17 0 11 26
-10 45 -19 17 -19 20 -5 28 12 6 20 4 30 -9 12 -16 16 -17 39 -5 30 16 32 29
12 57 -13 16 -18 17 -35 7 -30 -19 -39 -16 -12 4 19 13 28 14 43 4 15 -9 20
-8 24 4 4 8 11 15 16 15 6 0 5 -7 -3 -16 -11 -13 -11 -15 2 -14 26 4 39 0 39
-11 0 -8 -5 -8 -15 1 -25 20 -17 -5 9 -29 l24 -22 21 34 c11 19 21 38 21 43
-1 18 -59 66 -71 58 -8 -4 -10 -3 -5 4 4 7 1 12 -9 12 -9 0 -13 -4 -10 -10 6
-9 -8 -15 -29 -11 -5 1 -6 -9 -4 -23 4 -17 1 -23 -9 -19 -7 3 -10 9 -7 14 3 5
2 15 -2 21 -6 9 -11 5 -16 -12 -7 -24 -7 -24 -4 3 2 19 -3 32 -18 42 -11 8
-16 15 -12 15 5 0 17 -7 26 -15 15 -14 18 -14 30 0 9 11 9 19 2 28 -8 10 -6
16 9 25 19 12 24 6 20 -21 0 -4 3 -7 7 -7 17 0 21 13 10 34 -6 11 -7 18 -3 14
4 -4 17 4 27 18 18 22 19 27 5 42 -15 18 -13 42 5 42 6 0 5 -7 -3 -16 -12 -15
-11 -16 8 -10 29 9 39 -11 17 -35 -9 -10 -14 -22 -10 -26 4 -4 12 -1 17 7 9
13 10 13 6 0 -2 -8 -14 -14 -26 -13 -20 3 -29 -11 -13 -20 4 -2 1 -2 -7 0 -8
2 -11 -2 -8 -11 7 -18 -18 -40 -34 -30 -7 4 -10 2 -7 -7 6 -16 39 -13 51 4 6
8 7 5 3 -6 -4 -14 -1 -16 18 -11 14 3 27 1 31 -6 5 -9 1 -10 -16 -5 -23 7 -23
6 -7 -11 15 -15 19 -15 34 -4 15 13 15 15 -2 30 -26 21 -26 34 -3 48 10 7 19
8 19 3 0 -5 -6 -11 -12 -14 -20 -7 6 -43 28 -39 14 2 11 -3 -11 -21 -25 -21
-27 -27 -16 -40 8 -10 10 -25 5 -39 -6 -22 -6 -22 13 -6 18 16 19 16 19 -1 0
-10 -5 -17 -12 -14 -21 8 -24 -37 -4 -50 14 -8 16 -15 8 -24 -8 -10 -6 -13 6
-13 20 0 21 36 1 44 -8 3 -15 11 -14 18 0 10 2 10 6 1 11 -29 20 -9 19 44 -1
35 -6 58 -13 61 -7 2 -13 -1 -13 -7 0 -6 5 -11 11 -11 5 0 7 -5 3 -11 -5 -8
-10 -6 -16 5 -11 20 -1 39 17 32 9 -3 12 7 12 35 -1 28 -5 38 -13 35 -8 -3
-11 0 -8 8 3 7 -1 18 -9 25 -11 9 -17 8 -27 -4 -7 -8 -17 -15 -23 -15 -6 0 -2
7 9 15 15 10 20 23 18 42 -3 27 -3 27 4 3 5 -17 10 -21 16 -12 4 6 5 16 2 21
-3 5 0 11 7 14 10 4 13 -2 9 -19 -2 -13 0 -24 6 -24 5 0 10 16 10 35 0 39 -1
40 -27 23 -14 -9 -23 -8 -42 5 -27 20 -18 23 12 5 17 -11 22 -10 33 4 7 10 16
15 19 11 4 -3 7 1 7 10 0 23 -16 21 -32 -2 -12 -17 -16 -17 -33 -5 -10 8 -15
14 -11 14 5 0 4 6 -2 13 -8 9 -6 16 8 24 18 12 18 53 0 53 -13 0 -33 -30 -26
-37 4 -4 12 -1 17 7 9 13 10 13 6 0 -2 -8 -14 -14 -26 -13 -20 3 -29 -11 -13
-20 4 -2 1 -2 -7 0 -9 2 -11 -2 -7 -13 3 -8 -1 -25 -9 -37 -8 -12 -15 -17 -15
-11 0 5 5 15 11 21 8 8 8 17 -1 33 -8 15 -8 20 -1 16 6 -4 11 -3 11 1 0 5 12
21 26 36 14 16 23 31 19 35 -4 4 -18 -7 -32 -25 -24 -31 -25 -31 -44 -12 -10
10 -18 24 -17 30 2 6 -3 14 -10 16 -8 3 -10 -2 -6 -14 3 -11 2 -14 -3 -7 -16
21 -42 23 -65 4 -13 -10 -20 -21 -16 -25 4 -4 15 0 24 9 9 9 21 15 28 13 16
-5 14 -30 -4 -34 -13 -4 -13 -3 0 6 8 5 11 13 7 17 -7 7 -37 -13 -37 -26 0
-18 41 -18 52 0 9 14 15 16 30 7 10 -7 18 -15 18 -20 0 -4 -4 -5 -10 -2 -5 3
-10 1 -10 -4 0 -6 -5 -11 -11 -11 -8 0 -8 5 1 15 7 8 8 15 2 15 -5 0 -15 -6
-21 -14 -16 -19 13 -44 33 -27 10 9 15 8 20 -4 3 -8 3 -22 0 -30 -5 -12 -9
-13 -21 -4 -22 19 -42 -5 -25 -31 18 -29 15 -38 -5 -11 -13 19 -14 28 -5 42
16 26 17 24 -34 58 -40 28 -45 29 -39 11 4 -12 2 -27 -5 -35 -8 -10 -8 -18 1
-33 10 -16 9 -24 -4 -43 -10 -13 -17 -19 -17 -13 0 5 5 15 11 21 16 16 3 47
-16 39 -21 -8 -19 0 7 23 18 18 20 24 10 46 -7 15 -8 24 -3 21 5 -3 12 1 15
10 9 24 7 28 -9 14 -10 -9 -15 -9 -15 -1 0 11 13 15 39 11 13 -1 13 1 2 14 -8
9 -9 16 -3 16 6 0 12 -6 15 -12 2 -7 8 -10 12 -6 4 4 3 14 -3 21 -7 8 -9 17
-5 20 3 4 -2 9 -11 13 -9 3 -13 10 -10 15 3 5 -2 9 -11 9 -9 0 -14 -4 -11 -9
3 -4 -6 -7 -20 -5 -21 2 -24 -1 -18 -14 3 -9 6 -26 6 -36 -1 -14 2 -16 11 -7
6 6 15 11 21 11 5 0 1 -6 -9 -14 -22 -16 -39 -11 -31 9 6 17 -38 77 -49 67 -5
-4 -1 5 8 21 10 15 13 27 7 27 -5 0 -10 4 -10 10 0 5 13 1 30 -8 32 -18 43
-39 11 -23 -18 10 -31 6 -31 -10 0 -5 8 -6 18 -3 14 5 14 4 2 -5 -8 -5 -11
-13 -7 -17 4 -4 12 -3 18 3 6 6 18 9 25 6 10 -4 12 0 8 13 -3 11 -2 15 3 8 16
-21 42 -23 65 -4 13 10 20 21 16 25 -4 4 -15 0 -24 -9 -9 -9 -21 -15 -28 -13
-16 5 -14 30 4 34 13 4 13 3 0 -6 -8 -5 -11 -13 -7 -17 7 -7 37 13 37 26 0 18
-41 17 -53 -1 -8 -10 -17 -16 -20 -12 -4 3 2 13 14 21 16 11 18 17 8 28 -7 8
-18 13 -26 10 -10 -4 -11 -1 -3 13 5 11 15 21 22 23 10 4 10 10 0 32 -7 15 -8
24 -2 21 5 -3 10 -1 10 4 0 6 5 11 12 11 9 0 9 -3 0 -12 -7 -7 -12 -17 -12
-22 0 -6 11 2 25 17 14 15 31 27 38 27 6 0 1 -7 -11 -16 -27 -19 -28 -30 -2
-37 22 -6 36 9 38 41 1 21 -15 29 -43 22 -5 -2 -17 -3 -25 -4 -9 -1 -20 -5
-27 -9 -14 -9 -25 17 -16 40 5 12 3 14 -8 8 -8 -5 -6 1 5 13 14 17 16 25 7 35
-6 8 -8 17 -4 20 3 4 -1 7 -11 7 -14 0 -15 -4 -6 -20 12 -22 5 -44 -11 -34 -5
3 -7 13 -5 22 7 20 -9 49 -18 34 -3 -5 -19 -8 -35 -6 -17 2 -33 -1 -36 -6 -4
-6 -14 -5 -26 3 -16 10 -21 9 -29 -3 -7 -11 -10 -11 -10 -2 0 7 -4 11 -9 8 -5
-4 -12 0 -14 6 -3 7 -6 11 -7 8z m66 -29 c-4 -5 -1 -12 4 -14 6 -3 5 -4 -2 -3
-15 3 -23 26 -8 26 6 0 9 -4 6 -9z m48 -6 c-4 -8 -11 -15 -16 -15 -6 0 -5 6 2
15 7 8 14 15 16 15 2 0 1 -7 -2 -15z m56 3 c0 -4 -6 -8 -14 -8 -8 0 -17 4 -20
8 -2 4 4 8 15 8 10 0 19 -4 19 -8z m-25 -27 c-9 -15 25 -50 43 -45 14 5 15 4
2 -5 -12 -8 -12 -11 3 -17 9 -3 17 -10 17 -15 0 -4 -7 -6 -15 -3 -8 4 -15 1
-15 -5 0 -6 6 -11 13 -11 19 0 39 -37 23 -43 -7 -3 -19 -1 -27 5 -11 8 -10 9
4 4 11 -4 17 -2 15 5 -2 6 -7 10 -12 9 -14 -3 -26 24 -20 45 6 19 5 19 -12 3
-15 -14 -15 -19 -4 -33 11 -14 11 -21 -4 -46 -9 -16 -14 -29 -9 -29 4 0 1 -5
-9 -10 -9 -6 -23 -7 -32 -4 -14 5 -14 8 -1 27 14 20 13 23 -7 41 l-23 18 28
-16 c15 -9 27 -12 27 -6 0 5 5 10 11 10 6 0 1 -13 -10 -29 -22 -31 -26 -41
-13 -41 13 0 45 68 37 80 -4 6 -14 8 -23 6 -10 -3 -24 -1 -32 4 -13 9 -13 11
0 20 8 5 22 7 31 5 20 -7 45 20 29 30 -5 3 -17 19 -25 35 -14 26 -14 29 0 24
8 -3 13 -9 10 -13z m39 -24 c7 -6 6 -7 -4 -4 -8 2 -16 12 -17 23 -2 13 -1 15
4 4 3 -8 11 -19 17 -23z m-234 -27 c0 -5 -5 -10 -11 -10 -5 0 -7 5 -4 10 3 6
8 10 11 10 2 0 4 -4 4 -10z m109 -4 c9 -10 8 -15 -4 -20 -8 -3 -22 -3 -30 0
-12 5 -13 10 -4 20 6 8 15 14 19 14 4 0 13 -6 19 -14z m-39 -36 c0 -5 -4 -10
-10 -10 -5 0 -10 5 -10 10 0 6 5 10 10 10 6 0 10 -4 10 -10z m60 0 c0 -5 -4
-10 -10 -10 -5 0 -10 5 -10 10 0 6 5 10 10 10 6 0 10 -4 10 -10z m230 -10 c0
-5 -5 -10 -11 -10 -5 0 -7 5 -4 10 3 6 8 10 11 10 2 0 4 -4 4 -10z m-276 -22
c5 -10 7 -10 12 0 3 6 11 12 17 12 6 0 4 -8 -6 -17 -16 -16 -18 -16 -34 0 -10
9 -12 17 -6 17 6 0 14 -6 17 -12z m24 -26 c18 16 42 14 42 -4 0 -6 -6 -5 -16
3 -13 11 -15 9 -11 -12 2 -13 2 -18 0 -11 -3 6 -8 12 -13 12 -12 0 -33 -30
-26 -37 4 -4 12 -1 17 7 9 13 10 13 6 0 -6 -24 -32 -18 -30 8 3 23 -13 31 -20
10 -2 -7 -2 -2 0 11 4 21 2 23 -11 12 -10 -8 -16 -9 -16 -3 0 18 24 20 43 4
15 -14 19 -14 35 0z m137 -12 c3 -6 -1 -7 -9 -4 -11 4 -16 0 -16 -12 0 -9 -3
-15 -6 -11 -9 8 3 37 15 37 5 0 13 -4 16 -10z m-385 -140 c0 -5 -4 -10 -10
-10 -5 0 -10 5 -10 10 0 6 5 10 10 10 6 0 10 -4 10 -10z m160 0 c0 -5 -4 -10
-10 -10 -5 0 -10 5 -10 10 0 6 5 10 10 10 6 0 10 -4 10 -10z m160 0 c0 -5 -4
-10 -10 -10 -5 0 -10 5 -10 10 0 6 5 10 10 10 6 0 10 -4 10 -10z m100 -30 c0
-5 -4 -10 -10 -10 -5 0 -10 5 -10 10 0 6 5 10 10 10 6 0 10 -4 10 -10z m30 0
c0 -5 -4 -10 -10 -10 -5 0 -10 5 -10 10 0 6 5 10 10 10 6 0 10 -4 10 -10z m46
-151 c8 -13 -9 -34 -26 -34 -19 0 -32 19 -24 38 5 15 40 12 50 -4z m134 -9 c0
-5 -4 -10 -10 -10 -5 0 -10 5 -10 10 0 6 5 10 10 10 6 0 10 -4 10 -10z m-90
-41 c0 -5 5 -7 12 -3 7 5 9 2 5 -9 -6 -17 19 -44 31 -32 4 4 1 10 -5 12 -7 3
-13 10 -13 16 0 6 7 4 17 -5 13 -14 14 -20 3 -33 -11 -14 -14 -13 -27 2 -13
17 -14 17 -8 -3 4 -16 -1 -23 -22 -32 -26 -12 -27 -11 -8 3 23 18 26 41 8 73
-8 13 -9 22 -3 22 5 0 10 -5 10 -11z m-57 -6 c-7 -2 -19 -2 -25 0 -7 3 -2 5
12 5 14 0 19 -2 13 -5z m-11 -30 c10 -9 21 -13 25 -9 4 4 1 12 -7 17 -13 9
-13 10 0 6 9 -2 14 -14 12 -27 -2 -19 0 -21 13 -10 9 7 15 8 15 2 0 -18 -24
-20 -42 -4 -16 14 -20 14 -35 0 -19 -16 -43 -14 -43 4 0 6 7 4 17 -3 15 -12
16 -12 10 4 -7 19 -2 37 10 37 4 0 15 -7 25 -17z m18 -48 c8 -9 8 -15 2 -15
-6 0 -13 6 -16 13 -5 10 -7 10 -12 0 -3 -7 -10 -13 -16 -13 -6 0 -6 6 2 15 7
8 16 15 20 15 4 0 13 -7 20 -15z m14 -37 c-3 -4 0 -8 5 -8 6 0 11 -5 11 -10 0
-6 -9 -5 -22 3 -29 16 -60 16 -66 -1 -2 -6 2 -10 10 -9 7 2 10 2 6 0 -16 -9
-7 -23 13 -20 12 1 24 -5 26 -13 4 -13 3 -13 -6 0 -5 8 -13 11 -17 7 -4 -4 1
-16 10 -26 22 -24 12 -44 -17 -35 -19 6 -20 5 -8 -10 8 -9 9 -16 3 -16 -18 0
-20 24 -5 42 14 15 13 20 -5 42 -10 14 -23 22 -27 18 -4 -4 -1 5 5 19 10 21
19 26 51 26 21 0 36 -4 33 -9z m126 -3 c0 -8 -2 -15 -4 -15 -2 0 -6 7 -10 15
-3 8 -1 15 4 15 6 0 10 -7 10 -15z m65 -13 c-3 -3 -11 0 -18 7 -9 10 -8 11 6
5 10 -3 15 -9 12 -12z m-305 -42 c-8 -5 -17 -7 -19 -4 -3 3 1 9 9 14 8 5 17 7
19 4 3 -3 -1 -9 -9 -14z m-150 -30 c-14 -10 -27 -17 -29 -14 -6 5 31 33 44 33
6 1 -1 -8 -15 -19z m350 10 c0 -5 -4 -10 -10 -10 -5 0 -10 5 -10 10 0 6 5 10
10 10 6 0 10 -4 10 -10z m42 -13 c23 -23 23 -24 5 -53 -16 -24 -18 -25 -14 -6
4 15 -1 27 -16 37 -12 8 -17 15 -13 15 5 0 18 -7 28 -17 11 -9 18 -11 18 -5 0
7 -9 17 -20 24 -11 7 -20 16 -20 20 0 13 8 9 32 -15z m-174 -61 c15 5 14 4 -1
-6 -15 -10 -21 -8 -32 7 -8 10 -15 22 -15 28 0 5 7 0 15 -12 10 -14 22 -20 33
-17z m64 -22 c-13 -9 -19 -9 -28 4 -9 13 -9 19 4 28 13 9 19 9 28 -4 9 -13 9
-19 -4 -28z m-202 -14 c0 -5 -4 -10 -10 -10 -5 0 -10 5 -10 10 0 6 5 10 10 10
6 0 10 -4 10 -10z m-280 -72 c0 -6 -6 -5 -15 2 -10 9 -15 9 -15 1 0 -6 -8 -11
-17 -11 -15 0 -15 2 2 14 20 14 45 11 45 -6z"/>
<path d="M6310 840 c0 -5 5 -10 10 -10 6 0 10 5 10 10 0 6 -4 10 -10 10 -5 0
-10 -4 -10 -10z"/>
<path d="M6230 870 c0 -5 5 -10 10 -10 6 0 10 5 10 10 0 6 -4 10 -10 10 -5 0
-10 -4 -10 -10z"/>
<path d="M6460 440 c0 -5 9 -10 20 -10 11 0 20 5 20 10 0 6 -9 10 -20 10 -11
0 -20 -4 -20 -10z"/>
<path d="M6450 360 c0 -5 5 -10 10 -10 6 0 10 5 10 10 0 6 -4 10 -10 10 -5 0
-10 -4 -10 -10z"/>
<path d="M6470 180 c0 -5 5 -10 10 -10 6 0 10 5 10 10 0 6 -4 10 -10 10 -5 0
-10 -4 -10 -10z"/>
<path d="M6510 120 c0 -5 5 -10 10 -10 6 0 10 5 10 10 0 6 -4 10 -10 10 -5 0
-10 -4 -10 -10z"/>
<path d="M6431 976 c-8 -10 -8 -16 3 -25 11 -9 14 -7 14 14 0 29 -2 30 -17 11z"/>
<path d="M6520 980 c0 -5 -7 -7 -16 -3 -9 3 -20 0 -25 -8 -7 -11 -9 -11 -9 -1
0 7 -4 11 -10 7 -5 -3 -7 -12 -4 -20 3 -7 -4 -18 -16 -25 -17 -9 -19 -14 -9
-26 8 -10 8 -14 0 -14 -6 0 -11 -4 -11 -9 0 -5 11 -8 25 -8 14 0 25 3 25 8 0
5 -5 9 -12 9 -6 0 -8 3 -5 6 4 4 13 1 22 -6 8 -7 15 -8 15 -3 0 16 -22 32 -39
26 -13 -4 -13 -3 -2 5 7 5 17 15 21 21 4 8 17 1 38 -20 27 -28 33 -30 48 -18
15 12 14 15 -5 30 -18 15 -19 18 -5 30 10 8 18 9 22 3 9 -13 54 -16 47 -3 -4
5 -1 9 5 9 7 0 9 -7 6 -16 -3 -9 -6 -18 -6 -21 0 -3 -8 1 -17 8 -15 12 -16 12
-9 -6 6 -17 4 -17 -18 4 -15 14 -26 20 -26 14 0 -6 7 -16 15 -23 8 -7 12 -17
8 -23 -4 -6 0 -8 10 -4 10 3 24 4 32 1 13 -5 13 -9 3 -22 -11 -13 -10 -15 5
-9 10 4 21 7 23 7 3 0 2 5 -1 10 -4 6 5 5 20 -2 21 -9 27 -9 38 6 12 16 13 16
13 -2 0 -17 -6 -20 -34 -17 -30 3 -32 2 -19 -13 33 -39 39 -62 22 -88 -19 -29
-2 -33 18 -4 8 11 17 17 20 13 4 -3 7 1 7 9 0 9 -6 18 -14 21 -15 6 -29 47
-15 47 5 0 9 -9 9 -20 0 -11 4 -20 8 -20 5 0 9 29 10 65 0 39 -4 65 -10 65 -5
0 -8 -7 -5 -14 4 -11 1 -13 -10 -9 -9 4 -14 2 -10 -3 11 -19 -7 -33 -25 -20
-15 11 -15 14 5 37 12 13 19 20 15 15 -5 -6 -8 -14 -8 -18 0 -10 49 23 50 33
0 4 -29 7 -64 7 -36 0 -70 4 -77 8 -8 5 -9 3 -4 -6 5 -9 2 -10 -14 -5 -13 4
-28 1 -37 -6 -12 -10 -13 -9 -8 5 3 9 3 16 0 16 -3 0 -6 -4 -6 -10z m-7 -24
c4 -10 1 -13 -9 -9 -7 3 -14 9 -14 14 0 14 17 10 23 -5z m139 -16 c-9 -16 -21
-30 -25 -30 -5 0 0 14 10 30 9 17 21 30 25 30 4 0 -1 -13 -10 -30z m-107 -20
c3 -5 2 -10 -4 -10 -5 0 -13 5 -16 10 -3 6 -2 10 4 10 5 0 13 -4 16 -10z"/>
<path d="M6007 905 l21 -29 -22 -17 c-11 -10 -18 -20 -14 -24 4 -4 17 3 29 14
22 21 23 23 7 48 -9 15 -22 29 -29 32 -7 2 -4 -9 8 -24z"/>
<path d="M6487 911 c12 -10 19 -21 16 -25 -4 -3 -1 -6 6 -6 7 0 27 -11 45 -25
37 -28 55 -33 36 -10 -7 9 -10 18 -6 22 3 3 6 1 6 -5 0 -7 4 -12 9 -12 5 0 9
11 9 25 0 14 -4 25 -9 25 -5 0 -9 -5 -9 -12 0 -9 -3 -9 -12 0 -9 9 -15 9 -25
0 -11 -8 -20 -5 -41 15 -16 15 -32 27 -38 27 -5 -1 1 -9 13 -19z m83 -41 c0
-5 -2 -10 -4 -10 -3 0 -8 5 -11 10 -3 6 -1 10 4 10 6 0 11 -4 11 -10z"/>
<path d="M6670 920 c0 -5 5 -10 11 -10 5 0 7 5 4 10 -3 6 -8 10 -11 10 -2 0
-4 -4 -4 -10z"/>
<path d="M5756 873 c-11 -11 -6 -23 7 -17 8 3 20 -2 27 -11 13 -15 35 -22 26
-7 -2 4 4 14 15 20 19 12 19 12 3 -13 -9 -14 -20 -25 -25 -25 -5 0 -6 -19 -3
-42 8 -64 8 -71 -1 -93 -6 -17 -4 -16 17 5 21 20 23 28 13 40 -6 8 -15 22 -19
30 -4 8 1 4 12 -9 12 -14 32 -25 51 -26 30 -3 31 -2 16 15 -10 11 -13 24 -8
36 6 16 4 17 -9 6 -13 -10 -17 -10 -22 3 -3 8 -3 23 1 33 5 16 5 16 -12 0 -17
-16 -17 -18 4 -47 12 -17 19 -31 14 -31 -4 0 -17 14 -28 32 l-21 31 24 24 c13
13 27 22 30 19 3 -3 2 -6 -3 -6 -4 0 -2 -7 5 -15 9 -10 9 -15 1 -15 -6 0 -11
-4 -11 -9 0 -5 11 -8 25 -8 14 0 25 3 25 8 0 5 -5 9 -12 9 -6 0 -8 3 -5 6 4 4
13 1 22 -6 15 -12 22 0 8 14 -5 4 -8 13 -8 19 0 5 -6 12 -13 15 -7 2 -10 -2
-6 -12 4 -10 1 -16 -7 -16 -7 0 -9 3 -6 7 4 3 1 13 -6 21 -8 11 -8 14 0 9 6
-4 14 -3 18 3 7 11 -65 7 -83 -4 -7 -4 -20 -2 -30 3 -11 6 -22 7 -26 4z"/>
<path d="M6606 836 c-14 -19 -22 -37 -17 -41 5 -3 12 3 14 12 4 16 5 16 6 1 1
-19 37 -21 60 -4 12 9 12 8 1 -11 -8 -12 -19 -19 -24 -15 -21 12 -47 9 -42 -5
3 -8 2 -12 -3 -9 -4 3 -18 -6 -29 -19 -24 -28 -28 -40 -10 -29 7 5 9 2 5 -8
-3 -9 0 -21 6 -27 17 -17 31 -13 17 4 -7 9 -10 18 -6 22 3 3 6 1 6 -5 0 -7 4
-12 9 -12 5 0 9 11 9 25 0 26 -13 34 -21 13 -4 -10 -6 -10 -6 -1 -1 16 14 24
33 17 14 -5 14 -9 4 -22 -11 -13 -10 -15 5 -9 10 4 21 7 23 7 3 0 2 5 -1 10
-3 6 6 5 20 -2 23 -10 29 -10 40 5 6 9 15 14 18 10 4 -3 7 1 7 10 0 23 -16 21
-32 -2 -12 -17 -16 -17 -33 -5 -10 8 -15 14 -9 14 5 0 15 9 21 19 9 15 9 25 0
45 -15 32 -21 32 -41 4 -9 -12 -16 -17 -16 -11 0 6 7 18 15 27 17 17 19 26 6
26 -5 0 -20 -15 -35 -34z m54 -16 c0 -5 -5 -10 -11 -10 -5 0 -7 5 -4 10 3 6 8
10 11 10 2 0 4 -4 4 -10z m-20 -60 c0 -5 -4 -10 -10 -10 -5 0 -10 5 -10 10 0
6 5 10 10 10 6 0 10 -4 10 -10z"/>
<path d="M6060 840 c0 -5 9 -10 20 -10 11 0 20 5 20 10 0 6 -9 10 -20 10 -11
0 -20 -4 -20 -10z"/>
<path d="M6136 830 c-19 -19 -19 -20 0 -55 10 -19 22 -35 26 -35 12 0 10 10
-11 39 -19 27 -19 27 0 39 19 12 26 33 12 31 -5 0 -17 -9 -27 -19z"/>
<path d="M6537 839 c19 -19 -30 -53 -56 -40 -26 15 -31 14 -31 -4 0 -9 -7 -18
-15 -21 -20 -8 -13 -17 39 -52 l43 -30 -2 28 c-3 36 -12 50 -36 50 -10 0 -19
4 -19 9 0 13 37 2 51 -15 9 -11 14 -10 32 6 11 11 23 18 25 15 3 -3 -8 -16
-23 -29 -26 -22 -28 -27 -17 -51 7 -14 8 -24 3 -21 -5 3 -12 -1 -15 -10 -9
-24 -7 -28 9 -14 10 9 15 9 15 1 0 -11 -13 -15 -37 -12 -7 1 -13 -3 -13 -9 0
-5 5 -10 12 -10 6 0 8 -3 5 -6 -4 -4 -13 -1 -22 6 -9 8 -15 8 -15 2 0 -6 5
-14 10 -17 6 -4 8 -11 5 -16 -4 -5 1 -12 9 -15 9 -3 13 -10 10 -15 -3 -5 2 -9
11 -9 9 0 13 5 10 10 -4 6 5 5 20 -2 14 -6 24 -17 21 -24 -5 -14 21 -40 31
-30 3 3 7 16 9 29 1 12 3 25 3 30 1 4 6 7 12 7 8 0 7 -6 -2 -16 -12 -15 -11
-16 7 -10 36 11 72 -46 47 -75 -13 -16 -9 -49 7 -49 4 0 13 7 20 15 10 12 10
18 -1 33 -11 14 -10 13 9 -2 19 -16 22 -17 22 -3 0 9 -8 18 -18 21 -20 7 -24
43 -6 50 7 3 9 -5 6 -20 -2 -13 0 -24 6 -24 5 0 10 16 10 35 0 39 -1 40 -27
23 -14 -9 -23 -8 -42 5 -27 20 -18 23 12 5 17 -11 22 -10 33 4 7 10 16 15 19
11 4 -3 7 1 7 10 0 23 -16 21 -32 -2 -11 -15 -17 -17 -29 -8 -14 11 -14 14 3
31 10 11 18 15 18 10 0 -6 -5 -15 -12 -22 -8 -8 -8 -12 -1 -12 6 0 16 7 23 15
10 12 10 18 -1 31 -12 15 -15 14 -30 -5 -9 -11 -19 -17 -23 -14 -4 4 -16 7
-27 8 -13 1 -18 -3 -14 -12 3 -8 -2 -24 -10 -36 -8 -12 -15 -16 -15 -10 0 7 5
15 10 18 6 3 10 12 10 18 -1 7 -9 2 -18 -9 -16 -19 -21 -20 -37 -8 -18 14 -18
14 1 28 10 8 21 12 24 10 2 -3 -2 -9 -10 -14 -8 -5 -11 -12 -7 -16 10 -11 39
17 33 33 -3 8 -1 11 4 8 6 -3 10 2 10 11 0 10 -3 14 -6 11 -4 -4 -19 10 -34
30 l-27 36 31 27 c26 24 28 30 17 44 -12 14 -15 14 -34 1 -12 -8 -26 -15 -32
-15 -5 0 3 9 19 19 17 11 33 18 38 15 4 -3 8 -1 8 5 0 6 -9 15 -19 21 -26 13
-38 13 -24 -1z m-55 -89 c10 0 18 -4 18 -9 0 -14 -38 -1 -52 18 -10 13 -10 14
2 4 8 -7 22 -13 32 -13z m71 -115 c-10 -8 -22 -15 -28 -15 -5 0 0 7 12 15 14
10 20 22 17 33 -5 15 -4 14 6 -1 10 -15 8 -21 -7 -32z m-33 -35 c0 -5 -4 -10
-10 -10 -5 0 -10 5 -10 10 0 6 5 10 10 10 6 0 10 -4 10 -10z m120 0 c0 -5 -4
-10 -10 -10 -5 0 -10 5 -10 10 0 6 5 10 10 10 6 0 10 -4 10 -10z m-45 -60 c3
-5 1 -10 -4 -10 -6 0 -11 5 -11 10 0 6 2 10 4 10 3 0 8 -4 11 -10z m95 -80 c0
-5 -5 -10 -11 -10 -5 0 -7 5 -4 10 3 6 8 10 11 10 2 0 4 -4 4 -10z"/>
<path d="M5996 764 c-8 -21 -8 -24 3 -24 12 0 22 28 12 35 -5 3 -12 -2 -15
-11z"/>
<path d="M5763 758 c-26 -32 -2 -63 26 -35 11 10 11 8 0 -10 -12 -20 -15 -21
-42 -7 -16 9 -35 13 -42 10 -8 -3 -19 2 -25 10 -7 8 -18 14 -24 14 -6 -1 0
-10 13 -20 l23 -20 -22 -18 c-16 -13 -20 -23 -14 -33 4 -8 9 -20 9 -28 0 -8 9
-15 19 -17 10 -1 26 -10 35 -18 14 -15 14 -19 -2 -46 -10 -17 -15 -30 -10 -30
4 0 1 -5 -7 -10 -8 -5 -24 -7 -35 -4 -19 6 -19 5 -3 -12 17 -17 18 -17 38 1
11 10 20 23 20 30 0 18 37 48 52 42 8 -4 7 -6 -4 -6 -10 -1 -18 -6 -18 -12 0
-6 9 -8 21 -4 15 5 22 2 26 -14 3 -11 9 -18 14 -15 5 3 2 18 -8 34 -16 28 -16
30 2 50 10 11 13 20 7 20 -6 0 -17 -8 -24 -17 -7 -10 -20 -18 -28 -18 -18 0
-65 43 -57 52 4 3 7 1 7 -5 0 -7 4 -12 9 -12 5 0 9 11 9 25 0 26 -13 34 -21
13 -4 -10 -6 -10 -6 -1 -1 16 14 24 33 17 13 -5 14 -9 5 -20 -7 -8 -7 -14 -1
-14 5 0 15 7 22 15 7 9 20 13 27 11 11 -4 13 0 8 15 -4 11 -2 26 4 33 8 9 7
20 -2 39 -13 30 -20 33 -34 15z m17 -18 c0 -5 -5 -10 -11 -10 -5 0 -7 5 -4 10
3 6 8 10 11 10 2 0 4 -4 4 -10z m-17 -68 c-8 -2 -21 2 -30 9 -13 11 -18 10
-34 -10 -11 -13 -22 -21 -25 -18 -3 3 5 16 18 28 22 23 25 23 54 9 18 -9 25
-16 17 -18z m-73 -42 c0 -5 -5 -10 -11 -10 -5 0 -7 5 -4 10 3 6 8 10 11 10 2
0 4 -4 4 -10z"/>
<path d="M5920 755 c-7 -9 -10 -19 -6 -22 4 -4 11 -1 16 7 6 10 10 11 10 3 0
-17 -35 -34 -54 -27 -19 7 -70 -39 -85 -76 -7 -18 -10 -20 -10 -7 -1 23 -13
21 -39 -6 -23 -24 -20 -37 8 -37 21 0 63 44 53 55 -5 5 -1 4 8 -3 9 -6 19 -9
22 -5 4 3 7 1 7 -6 0 -8 -6 -11 -16 -7 -12 5 -15 2 -10 -10 4 -10 -1 -22 -11
-29 -16 -12 -16 -15 2 -48 10 -20 21 -35 24 -35 29 3 33 -3 18 -20 -25 -27
-21 -36 7 -15 13 10 22 22 19 26 -3 5 4 4 15 -2 17 -9 23 -8 31 6 6 10 11 13
11 8 0 -6 -5 -16 -12 -23 -7 -7 -8 -12 -2 -12 18 0 32 21 27 40 -3 11 -13 18
-24 17 -11 -1 -17 -7 -15 -14 3 -7 -1 -10 -9 -7 -12 5 -12 9 -1 27 7 12 12 33
10 47 -1 14 3 28 9 32 6 4 8 10 4 14 -4 5 -17 -2 -29 -14 -13 -12 -17 -22 -10
-22 7 0 12 -6 12 -12 -1 -7 -10 -2 -20 11 -11 13 -20 28 -19 35 0 7 2 7 6 -1
2 -7 9 -13 14 -13 6 0 9 6 8 13 -3 24 1 37 12 37 8 0 7 -6 -2 -16 -12 -15 -11
-16 8 -10 26 8 39 -9 23 -29 -15 -18 1 -20 19 -2 11 10 11 8 0 -10 -7 -12 -17
-19 -21 -17 -16 10 -7 -14 12 -31 11 -10 20 -24 20 -32 0 -8 5 -11 10 -8 7 4
4 17 -7 35 -16 28 -16 30 1 48 15 17 15 20 1 25 -21 9 -19 29 6 61 l21 27 -21
23 c-11 12 -21 28 -21 34 0 17 -15 15 -30 -3z m28 -44 c-6 -10 -18 -17 -25
-14 -10 4 -8 9 9 18 13 7 24 13 26 14 1 1 -3 -8 -10 -18z m-27 -31 c24 -10 24
-10 -4 -7 -20 3 -32 -2 -42 -17 -8 -11 -15 -16 -15 -12 0 5 7 18 17 28 9 10
11 18 5 18 -6 0 -18 -10 -26 -22 -9 -12 -18 -19 -21 -16 -10 10 39 55 51 46 5
-4 21 -12 35 -18z m40 3 c-8 -15 -10 -15 -11 -2 0 17 10 32 18 25 2 -3 -1 -13
-7 -23z m-186 -72 c-3 -6 -11 -11 -16 -11 -5 0 -4 6 3 14 14 16 24 13 13 -3z
m98 -58 c-3 -7 -10 -13 -15 -13 -6 0 -6 6 2 14 9 12 8 15 -9 13 -25 -2 -26
-10 -4 -32 16 -16 18 -16 35 5 21 25 24 14 4 -13 -16 -21 -39 -14 -61 19 -15
23 -10 30 18 25 5 -1 5 9 1 21 -7 23 -6 23 14 -2 11 -13 17 -30 15 -37z"/>
<path d="M6704 719 c-3 -6 -17 -8 -30 -5 -18 5 -31 0 -49 -18 -29 -29 -24 -65
8 -64 31 2 46 16 40 38 -7 26 -18 25 -37 -2 -9 -12 -16 -18 -16 -12 0 6 9 21
19 33 l20 23 25 -40 c28 -46 46 -60 46 -39 0 8 -6 17 -14 20 -15 6 -29 47 -15
47 5 0 9 -9 9 -20 0 -11 4 -20 9 -20 5 0 9 16 9 35 0 35 -10 45 -24 24z m-44
-59 c0 -5 -5 -10 -11 -10 -5 0 -7 5 -4 10 3 6 8 10 11 10 2 0 4 -4 4 -10z"/>
<path d="M6150 680 c0 -5 5 -10 10 -10 6 0 10 5 10 10 0 6 -4 10 -10 10 -5 0
-10 -4 -10 -10z"/>
<path d="M6310 680 c0 -5 5 -10 10 -10 6 0 10 5 10 10 0 6 -4 10 -10 10 -5 0
-10 -4 -10 -10z"/>
<path d="M6230 620 c0 -5 5 -10 10 -10 6 0 10 5 10 10 0 6 -4 10 -10 10 -5 0
-10 -4 -10 -10z"/>
<path d="M6120 599 c0 -5 5 -7 10 -4 6 3 10 8 10 11 0 2 -4 4 -10 4 -5 0 -10
-5 -10 -11z"/>
<path d="M5727 509 c-5 -20 10 -39 33 -39 23 0 38 19 33 39 -3 12 -14 18 -33
18 -19 0 -30 -6 -33 -18z m44 -9 c9 13 10 13 6 0 -2 -8 -10 -15 -17 -15 -7 0
-15 7 -17 15 -4 13 -3 13 6 0 10 -13 12 -13 22 0z"/>
<path d="M6124 517 c4 -11 -2 -29 -13 -43 -16 -21 -20 -22 -31 -9 -8 9 -21 13
-36 9 -16 -4 -26 -1 -29 8 -8 19 -36 19 -57 0 -22 -18 -24 -40 -3 -22 9 7 15
8 15 2 0 -5 -7 -13 -16 -16 -8 -3 -13 -10 -10 -15 3 -5 -1 -12 -9 -15 -12 -4
-13 -2 -6 13 8 14 6 22 -8 35 -22 20 -23 20 -51 -4 -12 -11 -27 -17 -31 -14
-5 3 -9 0 -9 -5 0 -13 6 -14 29 -2 11 6 22 6 32 -1 12 -8 11 -9 -2 -5 -9 3
-26 -1 -37 -9 -17 -12 -21 -12 -26 2 -3 9 -3 20 0 25 3 6 0 18 -8 27 -11 15
-11 15 3 5 15 -12 29 -8 29 7 0 14 -40 7 -56 -11 -9 -10 -22 -19 -29 -19 -19
0 -46 -36 -40 -52 3 -8 19 -15 35 -15 28 0 39 10 23 20 -5 2 -2 2 5 0 8 -1 12
3 9 9 -2 8 -16 12 -33 10 l-29 -3 35 18 c19 11 37 17 40 15 3 -3 -1 -7 -7 -9
-9 -3 -8 -11 4 -31 9 -15 13 -24 9 -20 -5 4 -17 -3 -27 -15 -10 -12 -18 -16
-19 -9 0 14 -20 17 -20 3 0 -18 33 -21 51 -5 18 16 24 12 21 -17 0 -3 15 -14
34 -24 38 -20 51 -15 59 25 3 13 12 31 20 39 14 15 19 14 50 -4 19 -11 36 -24
36 -30 1 -5 8 -15 16 -20 7 -6 12 -21 11 -35 -2 -16 2 -24 10 -22 7 1 23 -5
35 -13 19 -14 20 -16 3 -13 -10 2 -21 -3 -24 -11 -3 -8 0 -11 6 -7 18 11 25
-14 9 -32 -8 -9 -13 -22 -10 -28 2 -6 -6 -19 -17 -29 -22 -20 -26 -35 -8 -35
6 0 9 3 6 6 -3 3 5 17 18 31 13 14 27 23 31 20 3 -4 1 -7 -5 -7 -7 0 -12 -4
-12 -9 0 -5 11 -8 25 -8 14 0 25 3 25 8 0 5 -5 9 -11 9 -8 0 -9 4 0 13 6 8 8
17 4 20 -3 4 -4 7 0 7 3 0 17 -11 30 -23 l23 -24 -24 -38 c-13 -20 -32 -40
-43 -42 -10 -3 -16 -9 -13 -14 3 -5 16 -1 31 8 21 14 28 14 45 4 11 -7 22 -10
25 -7 3 2 -4 10 -15 17 -19 12 -19 15 -5 44 15 30 14 33 -15 65 -26 28 -33 31
-46 21 -9 -8 -13 -17 -10 -22 3 -5 0 -9 -5 -9 -16 0 -13 16 4 34 13 13 13 15
-3 19 -16 4 -16 5 0 6 12 1 17 8 15 22 -1 12 5 24 13 26 13 4 13 3 0 -6 -8 -5
-11 -13 -7 -17 7 -7 37 13 37 26 0 18 -41 17 -53 -1 -8 -10 -17 -16 -20 -12
-4 3 2 13 14 21 15 10 17 17 9 27 -13 16 -52 16 -47 0 2 -5 13 -8 23 -7 15 3
16 1 7 -9 -16 -16 -47 7 -38 29 4 10 0 12 -10 8 -9 -3 -13 -2 -10 4 3 5 -12
21 -34 34 -40 26 -63 50 -38 40 17 -6 19 25 3 46 -9 13 -9 13 5 3 9 -7 19 -10
23 -6 4 4 4 0 1 -9 -5 -11 -1 -16 12 -15 22 2 24 -25 3 -30 -13 -4 -13 -3 0 6
8 5 11 13 7 17 -7 7 -37 -13 -37 -26 0 -18 41 -18 53 0 9 15 14 16 25 8 7 -7
22 -12 33 -13 14 -1 17 3 13 21 -3 12 0 25 6 29 9 5 10 1 5 -16 -7 -23 -6 -23
11 -7 15 15 15 19 3 35 -12 16 -12 17 2 6 9 -7 19 -10 22 -6 10 10 8 23 -2 21
-5 -2 -17 6 -26 17 -15 18 -16 18 -11 2z m-207 -79 c-3 -8 -6 -5 -6 6 -1 11 2
17 5 13 3 -3 4 -12 1 -19z m178 -7 c-6 -5 -25 10 -25 20 0 5 6 4 14 -3 8 -7
12 -15 11 -17z m-233 -30 c-22 -16 -23 -19 -8 -33 9 -9 21 -18 28 -21 7 -2 10
-7 7 -11 -7 -7 -59 39 -59 52 0 5 10 14 23 20 32 16 35 14 9 -7z m52 3 c5 -14
4 -15 -9 -4 -17 14 -19 20 -6 20 5 0 12 -7 15 -16z m-15 -18 c9 -10 8 -15 -3
-19 -11 -4 -13 -1 -9 11 6 15 5 15 -10 3 -10 -7 -17 -9 -17 -3 0 6 6 13 13 15
6 3 13 6 13 6 1 1 7 -5 13 -13z"/>
<path d="M6284 517 c3 -10 -2 -29 -11 -41 l-18 -23 -31 24 -32 24 -32 -40
c-18 -23 -28 -46 -24 -52 4 -8 3 -9 -4 -5 -7 4 -12 1 -12 -9 0 -9 5 -13 10
-10 9 5 14 -7 12 -26 -1 -4 15 -15 34 -25 35 -19 36 -19 49 0 8 10 12 22 10
27 -3 4 -1 10 5 14 5 3 10 11 10 17 0 6 -9 3 -20 -7 -10 -9 -19 -20 -18 -24 3
-27 -3 -31 -26 -16 -33 22 -40 45 -19 61 27 20 38 17 13 -4 -21 -17 -21 -19
-5 -35 22 -22 30 -21 32 4 2 17 -1 18 -13 9 -10 -9 -14 -9 -14 -1 0 11 13 15
38 12 13 -2 17 15 5 22 -5 2 -1 2 7 -1 19 -6 51 -5 58 2 2 3 -1 12 -7 20 -10
12 -9 20 4 38 15 20 16 20 10 3 -11 -33 -11 -37 4 -43 8 -2 11 0 8 5 -4 6 0
19 8 29 17 22 19 35 6 32 -5 -2 -17 6 -26 17 -15 18 -16 18 -11 2z m-68 -65
c1 -12 -3 -22 -8 -22 -5 0 -7 9 -3 19 4 13 0 21 -12 25 -15 4 -14 4 2 3 13 -2
20 -10 21 -25z m-35 1 c-9 -4 -10 -8 -3 -12 7 -4 4 -11 -8 -19 -12 -7 -20 -8
-20 -2 0 5 5 10 10 10 6 0 9 3 9 8 -3 15 1 22 14 21 8 0 8 -2 -2 -6z m56 -15
c-3 -8 -6 -5 -6 6 -1 11 2 17 5 13 3 -3 4 -12 1 -19z m28 -8 c3 -5 1 -10 -4
-10 -6 0 -11 5 -11 10 0 6 2 10 4 10 3 0 8 -4 11 -10z"/>
<path d="M6336 481 c-10 -11 -18 -26 -20 -34 -3 -21 -26 -47 -41 -47 -12 0
-25 -20 -31 -49 -1 -8 -10 -21 -19 -30 -14 -15 -19 -14 -50 4 -19 11 -34 24
-32 28 1 5 -6 13 -15 18 -10 6 -18 17 -18 26 0 9 -6 13 -14 10 -7 -3 -18 -1
-24 5 -17 17 -46 -10 -31 -29 7 -8 18 -12 25 -9 8 3 13 0 11 -7 -1 -7 4 -11
11 -9 18 3 108 -63 104 -78 -5 -20 17 -38 41 -33 19 3 18 2 -5 -12 -25 -14
-31 -14 -55 -1 -19 10 -23 15 -11 16 9 0 20 -4 23 -10 3 -5 12 -10 18 -10 7 1
2 9 -10 19 -16 14 -19 21 -10 30 21 21 -6 11 -30 -11 l-23 -21 30 -22 c16 -12
27 -25 23 -28 -18 -19 17 -3 51 23 45 34 61 37 75 12 6 -9 11 -13 11 -8 0 4 8
-2 18 -14 17 -21 18 -21 18 52 0 54 -4 76 -15 85 -9 7 -12 13 -6 13 5 0 -1 7
-13 16 -18 12 -26 13 -37 4 -8 -7 -12 -16 -9 -21 3 -5 0 -9 -5 -9 -13 0 -14
10 -3 26 11 18 52 36 67 30 17 -6 31 12 33 42 0 14 -5 22 -16 23 -14 0 -14 2
2 8 12 4 15 10 9 14 -6 4 -18 -2 -27 -12z m14 -25 c0 -2 -7 -7 -16 -10 -8 -3
-12 -2 -9 4 6 10 25 14 25 6z m0 -26 c0 -5 -5 -10 -11 -10 -5 0 -7 5 -4 10 3
6 8 10 11 10 2 0 4 -4 4 -10z m-280 -30 c0 -5 -5 -10 -11 -10 -5 0 -7 5 -4 10
3 6 8 10 11 10 2 0 4 -4 4 -10z m21 -33 c-10 -9 -11 -8 -5 6 3 10 9 15 12 12
3 -3 0 -11 -7 -18z m236 -23 c13 -14 22 -28 20 -30 -2 -2 -16 9 -30 26 -33 37
-24 40 10 4z m-25 -40 c-6 -11 -11 -13 -16 -5 -4 6 -2 11 3 11 6 0 11 4 11 9
0 5 -11 9 -25 9 -14 0 -25 -4 -25 -9 0 -5 5 -9 12 -9 6 0 9 -2 6 -5 -3 -3 -13
-3 -22 1 -13 5 -14 9 -5 21 7 7 18 12 25 9 7 -3 16 0 20 6 11 18 26 -19 16
-38z m16 -23 c-7 -12 -16 -21 -21 -21 -4 0 0 11 9 25 20 30 31 26 12 -4z m-91
-1 c-1 -11 -5 -20 -9 -20 -3 0 -6 9 -5 20 1 11 5 20 9 20 3 0 6 -9 5 -20z m34
-10 c6 0 7 5 4 10 -3 6 -1 10 4 10 13 0 13 -3 5 -24 -5 -13 -9 -14 -20 -5 -8
6 -14 17 -13 23 0 7 2 6 6 -1 2 -7 9 -13 14 -13z m73 -5 c-9 -14 -18 -25 -21
-25 -5 0 5 18 20 38 17 22 18 13 1 -13z"/>
<path d="M6395 480 c3 -5 8 -10 11 -10 2 0 4 5 4 10 0 6 -5 10 -11 10 -5 0 -7
-4 -4 -10z"/>
<path d="M5670 440 c0 -5 5 -10 10 -10 6 0 10 5 10 10 0 6 -4 10 -10 10 -5 0
-10 -4 -10 -10z"/>
<path d="M6550 440 c0 -5 5 -10 10 -10 6 0 10 5 10 10 0 6 -4 10 -10 10 -5 0
-10 -4 -10 -10z"/>
<path d="M6630 380 c0 -5 5 -10 10 -10 6 0 10 5 10 10 0 6 -4 10 -10 10 -5 0
-10 -4 -10 -10z"/>
<path d="M6706 319 c12 -13 20 -16 22 -9 3 7 -2 16 -9 21 -25 16 -32 9 -13
-12z"/>
<path d="M6550 279 c0 -5 5 -7 10 -4 6 3 10 8 10 11 0 2 -4 4 -10 4 -5 0 -10
-5 -10 -11z"/>
<path d="M6540 235 c-9 -11 -8 -14 9 -12 22 1 28 12 12 21 -5 3 -14 -1 -21 -9z"/>
<path d="M5910 220 c0 -5 5 -10 10 -10 6 0 10 5 10 10 0 6 -4 10 -10 10 -5 0
-10 -4 -10 -10z"/>
<path d="M6563 126 c1 -19 -5 -31 -25 -43 -25 -16 -28 -16 -47 2 -12 10 -21
13 -21 7 0 -7 9 -17 19 -24 14 -8 17 -17 11 -27 -14 -28 12 -36 123 -37 84 -1
107 2 107 12 0 13 -18 19 -50 14 -10 -1 -9 3 5 13 19 15 19 16 2 35 -10 11
-15 27 -11 38 4 14 1 13 -14 -6 -18 -21 -32 -26 -72 -21 -5 1 -10 6 -10 12 0
8 5 8 15 -1 25 -21 17 5 -10 30 l-24 23 2 -27z m32 -65 c-3 -2 -11 1 -18 7 -8
7 -17 9 -20 5 -10 -9 -9 -25 1 -19 19 12 30 -9 15 -29 -15 -20 -15 -20 -9 0 5
16 1 21 -14 22 -22 2 -27 -13 -7 -20 6 -3 2 -4 -10 -4 -23 1 -21 9 10 44 16
18 23 20 38 10 10 -6 16 -13 14 -16z m66 15 c-6 -7 -9 -21 -5 -30 6 -16 -11
-23 -20 -8 -5 9 20 52 31 52 3 0 0 -6 -6 -14z m-31 -6 c0 -5 -5 -10 -11 -10
-5 0 -7 5 -4 10 3 6 8 10 11 10 2 0 4 -4 4 -10z m55 -10 c3 -5 1 -10 -4 -10
-6 0 -11 5 -11 10 0 6 2 10 4 10 3 0 8 -4 11 -10z m-61 -25 c3 -8 4 -15 2 -15
-3 0 -11 -3 -20 -6 -9 -3 -16 -1 -16 6 0 6 5 8 12 4 8 -5 9 -2 5 9 -3 10 -2
17 2 17 5 0 11 -7 15 -15z"/>
<path d="M6340 120 c0 -5 5 -10 10 -10 6 0 10 5 10 10 0 6 -4 10 -10 10 -5 0
-10 -4 -10 -10z"/>
</g>
</svg>
